<svg xmlns="http://www.w3.org/2000/svg" xmlns:xlink="http://www.w3.org/1999/xlink" width="500" zoomAndPan="magnify" viewBox="0 0 375 374.999991" height="500" preserveAspectRatio="xMidYMid meet" version="1.0"><defs><clipPath id="fd0e4d053a"><path d="M 53 80 L 322.089844 80 L 322.089844 375 L 53 375 Z M 53 80 " clip-rule="nonzero"/></clipPath><clipPath id="f3b78a8d71"><path d="M 206.609375 246.527344 L 315.964844 246.527344 L 315.964844 374.777344 L 206.609375 374.777344 Z M 206.609375 246.527344 " clip-rule="nonzero"/></clipPath><clipPath id="6b668ee66c"><path d="M 206.53125 255 L 207 255 L 207 256 L 206.53125 256 Z M 206.53125 255 " clip-rule="nonzero"/></clipPath><clipPath id="ba5821ac96"><path d="M 206.53125 255 L 262 255 L 262 374.777344 L 206.53125 374.777344 Z M 206.53125 255 " clip-rule="nonzero"/></clipPath><clipPath id="b5d7762139"><path d="M 206.53125 260 L 262 260 L 262 374.777344 L 206.53125 374.777344 Z M 206.53125 260 " clip-rule="nonzero"/></clipPath><clipPath id="fbb9fc6b86"><path d="M 206.53125 255 L 262 255 L 262 374.777344 L 206.53125 374.777344 Z M 206.53125 255 " clip-rule="nonzero"/></clipPath><clipPath id="e27f91cd3d"><path d="M 206.53125 255 L 210 255 L 210 257 L 206.53125 257 Z M 206.53125 255 " clip-rule="nonzero"/></clipPath><clipPath id="551acd61b2"><path d="M 206.53125 255 L 207 255 L 207 256 L 206.53125 256 Z M 206.53125 255 " clip-rule="nonzero"/></clipPath><clipPath id="222dab4bdc"><path d="M 209.175781 254.21875 L 315.964844 254.21875 L 315.964844 283.859375 L 209.175781 283.859375 Z M 209.175781 254.21875 " clip-rule="nonzero"/></clipPath><clipPath id="ed731e1141"><path d="M 209.175781 246.527344 L 315.964844 246.527344 L 315.964844 287.566406 L 209.175781 287.566406 Z M 209.175781 246.527344 " clip-rule="nonzero"/></clipPath><clipPath id="5408ef1ae0"><path d="M 206.53125 255 L 210 255 L 210 257 L 206.53125 257 Z M 206.53125 255 " clip-rule="nonzero"/></clipPath><clipPath id="63986eb040"><path d="M 206.53125 255 L 210 255 L 210 261 L 206.53125 261 Z M 206.53125 255 " clip-rule="nonzero"/></clipPath><clipPath id="9c51d4e7b1"><path d="M 206.53125 255 L 207 255 L 207 256 L 206.53125 256 Z M 206.53125 255 " clip-rule="nonzero"/></clipPath><clipPath id="85bf9917c4"><path d="M 206.53125 255 L 207 255 L 207 261 L 206.53125 261 Z M 206.53125 255 " clip-rule="nonzero"/></clipPath><clipPath id="4f3ecfd19f"><path d="M 261.054688 252.511719 L 315.964844 252.511719 L 315.964844 374.777344 L 261.054688 374.777344 Z M 261.054688 252.511719 " clip-rule="nonzero"/></clipPath><clipPath id="2e0bf0c78e"><path d="M 261 353 L 287 353 L 287 374.777344 L 261 374.777344 Z M 261 353 " clip-rule="nonzero"/></clipPath><clipPath id="20dc2085b9"><path d="M 261 341 L 294 341 L 294 374.777344 L 261 374.777344 Z M 261 341 " clip-rule="nonzero"/></clipPath><clipPath id="2f5d6c8343"><path d="M 261 350 L 289 350 L 289 374.777344 L 261 374.777344 Z M 261 350 " clip-rule="nonzero"/></clipPath><clipPath id="d2ca21c8c3"><path d="M 291.550781 254.21875 L 315.964844 254.21875 L 315.964844 256.214844 L 291.550781 256.214844 Z M 291.550781 254.21875 " clip-rule="nonzero"/></clipPath><clipPath id="c783cad1fb"><path d="M 261.054688 246.527344 L 315.964844 246.527344 L 315.964844 353.683594 L 261.054688 353.683594 Z M 261.054688 246.527344 " clip-rule="nonzero"/></clipPath></defs><path fill="#ffa000" d="M 230.199219 136.933594 L 192.902344 171.636719 L 158.300781 101.820312 L 176.207031 61.664062 C 180.863281 53.511719 188.128906 53.605469 192.671875 61.664062 Z M 230.199219 136.933594 " fill-opacity="1" fill-rule="nonzero"/><path fill="#f57f17" d="M 158.300781 101.820312 L 192.902344 171.636719 L 53.53125 301.316406 Z M 158.300781 101.820312 " fill-opacity="1" fill-rule="nonzero"/><g clip-path="url(#fd0e4d053a)"><path fill="#ffca28" d="M 270.984375 83.886719 C 277.644531 77.480469 284.539062 79.671875 286.296875 88.742188 L 322.578125 299.59375 L 202.324219 371.796875 C 198.132812 374.125 186.953125 375.128906 186.953125 375.128906 C 186.953125 375.128906 176.777344 373.917969 172.898438 371.632812 L 53.53125 301.316406 Z M 270.984375 83.886719 " fill-opacity="1" fill-rule="nonzero"/></g><path fill="#ffa000" d="M 158.300781 101.820312 L 53.542969 301.316406 L 100.199219 9.757812 C 101.921875 0.675781 107.089844 -0.199219 111.703125 7.8125 Z M 158.300781 101.820312 " fill-opacity="1" fill-rule="nonzero"/><g clip-path="url(#f3b78a8d71)"><path fill="#9e96d3" d="M 291.640625 254.390625 C 273.160156 251.582031 261.289062 246.527344 261.289062 246.527344 C 261.289062 246.527344 249.417969 251.582031 230.933594 254.390625 C 214.554688 256.878906 206.609375 255.835938 206.609375 255.835938 C 206.609375 348.558594 261.289062 374.777344 261.289062 374.777344 C 261.289062 374.777344 315.964844 348.558594 315.964844 255.835938 C 315.964844 255.835938 308.019531 256.878906 291.640625 254.390625 " fill-opacity="1" fill-rule="nonzero"/></g><g clip-path="url(#6b668ee66c)"><path fill="#ffffff" d="M 206.730469 255.851562 C 206.652344 255.839844 206.609375 255.835938 206.609375 255.835938 C 206.609375 255.835938 206.65625 255.839844 206.730469 255.851562 " fill-opacity="1" fill-rule="nonzero"/></g><g clip-path="url(#ba5821ac96)"><path fill="#dcd8f0" d="M 261.285156 374.773438 C 260.886719 374.582031 206.609375 348.21875 206.609375 255.835938 C 206.609375 348.21875 260.886719 374.582031 261.285156 374.773438 " fill-opacity="1" fill-rule="nonzero"/></g><g clip-path="url(#b5d7762139)"><path fill="#8880c8" d="M 261.289062 374.199219 C 258.335938 372.707031 208.882812 346.445312 206.824219 260.851562 C 207.171875 260.855469 207.546875 260.859375 207.941406 260.859375 C 208.40625 260.859375 208.902344 260.855469 209.433594 260.84375 C 212.761719 333.761719 250.972656 361.816406 261.289062 368.089844 L 261.289062 374.199219 " fill-opacity="1" fill-rule="nonzero"/></g><g clip-path="url(#fbb9fc6b86)"><path fill="#c2bde4" d="M 261.289062 374.777344 C 261.289062 374.777344 261.285156 374.777344 261.285156 374.773438 C 260.886719 374.582031 206.609375 348.21875 206.609375 255.835938 C 206.609375 257.542969 206.667969 259.183594 206.703125 260.847656 C 206.742188 260.847656 206.785156 260.847656 206.824219 260.851562 C 208.882812 346.445312 258.335938 372.707031 261.289062 374.199219 L 261.289062 374.777344 " fill-opacity="1" fill-rule="nonzero"/></g><g clip-path="url(#e27f91cd3d)"><path fill="#e5e3f4" d="M 209.265625 256.015625 C 207.90625 255.964844 207.074219 255.886719 206.757812 255.855469 C 206.757812 255.851562 206.757812 255.851562 206.757812 255.851562 C 206.75 255.851562 206.738281 255.851562 206.730469 255.851562 C 207.03125 255.882812 207.878906 255.960938 209.265625 256.011719 " fill-opacity="1" fill-rule="nonzero"/></g><g clip-path="url(#551acd61b2)"><path fill="#e4e2f4" d="M 206.757812 255.855469 C 206.753906 255.851562 206.75 255.851562 206.746094 255.851562 C 206.742188 255.851562 206.738281 255.851562 206.738281 255.851562 C 206.738281 255.851562 206.734375 255.851562 206.734375 255.851562 C 206.734375 255.851562 206.730469 255.851562 206.730469 255.851562 C 206.726562 255.851562 206.722656 255.847656 206.722656 255.847656 C 206.71875 255.847656 206.71875 255.847656 206.714844 255.847656 C 206.714844 255.847656 206.710938 255.847656 206.710938 255.847656 C 206.710938 255.847656 206.710938 255.847656 206.707031 255.847656 C 206.695312 255.847656 206.6875 255.847656 206.679688 255.84375 C 206.679688 255.84375 206.675781 255.84375 206.675781 255.84375 C 206.671875 255.84375 206.667969 255.84375 206.664062 255.84375 C 206.664062 255.84375 206.660156 255.84375 206.660156 255.84375 C 206.660156 255.84375 206.660156 255.839844 206.660156 255.839844 C 206.65625 255.839844 206.65625 255.839844 206.65625 255.839844 C 206.65625 255.839844 206.652344 255.839844 206.652344 255.839844 C 206.648438 255.839844 206.640625 255.839844 206.636719 255.839844 C 206.636719 255.839844 206.632812 255.839844 206.632812 255.839844 C 206.632812 255.839844 206.628906 255.839844 206.628906 255.839844 C 206.628906 255.839844 206.628906 255.839844 206.625 255.839844 C 206.617188 255.835938 206.613281 255.835938 206.613281 255.835938 C 206.609375 255.835938 206.609375 255.835938 206.609375 255.835938 C 206.609375 255.835938 206.652344 255.839844 206.730469 255.851562 C 206.738281 255.851562 206.75 255.851562 206.757812 255.851562 " fill-opacity="1" fill-rule="nonzero"/><path fill="#c2bde4" d="M 206.746094 255.851562 L 206.746094 255.851562 M 206.738281 255.851562 C 206.738281 255.851562 206.734375 255.851562 206.734375 255.851562 C 206.734375 255.851562 206.738281 255.851562 206.738281 255.851562 M 206.730469 255.851562 C 206.726562 255.851562 206.722656 255.847656 206.722656 255.847656 C 206.722656 255.847656 206.726562 255.851562 206.730469 255.851562 M 206.710938 255.847656 C 206.710938 255.847656 206.710938 255.847656 206.707031 255.847656 C 206.710938 255.847656 206.710938 255.847656 206.710938 255.847656 M 206.707031 255.847656 C 206.695312 255.847656 206.6875 255.847656 206.679688 255.84375 C 206.6875 255.847656 206.695312 255.847656 206.707031 255.847656 M 206.675781 255.84375 C 206.671875 255.84375 206.667969 255.84375 206.664062 255.84375 C 206.667969 255.84375 206.671875 255.84375 206.675781 255.84375 M 206.660156 255.84375 C 206.660156 255.84375 206.660156 255.839844 206.660156 255.839844 C 206.660156 255.839844 206.660156 255.84375 206.660156 255.84375 M 206.65625 255.839844 C 206.65625 255.839844 206.652344 255.839844 206.652344 255.839844 C 206.652344 255.839844 206.65625 255.839844 206.65625 255.839844 M 206.652344 255.839844 C 206.648438 255.839844 206.640625 255.839844 206.636719 255.839844 C 206.640625 255.839844 206.648438 255.839844 206.652344 255.839844 M 206.636719 255.839844 C 206.636719 255.839844 206.632812 255.839844 206.632812 255.839844 C 206.632812 255.839844 206.636719 255.839844 206.636719 255.839844 M 206.632812 255.839844 C 206.632812 255.839844 206.628906 255.839844 206.628906 255.839844 C 206.628906 255.839844 206.632812 255.839844 206.632812 255.839844 M 206.625 255.839844 L 206.625 255.839844 M 206.613281 255.835938 C 206.609375 255.835938 206.609375 255.835938 206.609375 255.835938 C 206.609375 255.835938 206.609375 255.835938 206.613281 255.835938 " fill-opacity="1" fill-rule="nonzero"/></g><g clip-path="url(#222dab4bdc)"><path fill="#edeaf7" d="M 314.164062 283.800781 C 314.164062 283.796875 314.164062 283.792969 314.164062 283.789062 C 314.164062 283.789062 314.164062 283.800781 314.164062 283.800781 M 314.171875 283.742188 C 314.171875 283.738281 314.171875 283.726562 314.171875 283.722656 C 314.171875 283.730469 314.171875 283.734375 314.171875 283.742188 M 314.179688 283.6875 C 314.179688 283.675781 314.179688 283.667969 314.183594 283.65625 C 314.179688 283.664062 314.179688 283.679688 314.179688 283.6875 M 314.1875 283.625 C 314.1875 283.617188 314.1875 283.605469 314.191406 283.59375 C 314.1875 283.605469 314.1875 283.617188 314.1875 283.625 M 314.195312 283.570312 C 314.195312 283.558594 314.195312 283.542969 314.199219 283.535156 C 314.195312 283.546875 314.195312 283.558594 314.195312 283.570312 M 314.203125 283.511719 C 314.203125 283.5 314.203125 283.484375 314.207031 283.476562 C 314.203125 283.484375 314.203125 283.5 314.203125 283.511719 M 314.210938 283.453125 C 314.210938 283.4375 314.210938 283.425781 314.214844 283.414062 C 314.210938 283.425781 314.210938 283.4375 314.210938 283.453125 M 314.21875 283.394531 C 314.21875 283.382812 314.21875 283.367188 314.222656 283.351562 C 314.21875 283.367188 314.21875 283.378906 314.21875 283.394531 M 314.222656 283.339844 C 314.226562 283.328125 314.230469 283.304688 314.230469 283.292969 C 314.226562 283.308594 314.226562 283.324219 314.222656 283.339844 M 314.230469 283.289062 C 315.191406 276.019531 315.785156 268.226562 315.929688 259.871094 C 315.785156 268.226562 315.191406 276.019531 314.230469 283.289062 M 315.929688 259.867188 C 315.929688 259.84375 315.929688 259.828125 315.929688 259.804688 C 315.929688 259.824219 315.929688 259.847656 315.929688 259.867188 M 315.929688 259.800781 C 315.929688 259.777344 315.929688 259.761719 315.933594 259.742188 C 315.929688 259.757812 315.929688 259.78125 315.929688 259.800781 M 315.933594 259.730469 C 315.933594 259.710938 315.933594 259.699219 315.933594 259.675781 C 315.933594 259.695312 315.933594 259.710938 315.933594 259.730469 M 315.933594 259.664062 C 315.933594 259.640625 315.933594 259.632812 315.933594 259.609375 C 315.933594 259.628906 315.933594 259.644531 315.933594 259.664062 M 315.933594 259.59375 C 315.933594 259.570312 315.933594 259.5625 315.9375 259.539062 C 315.933594 259.558594 315.933594 259.578125 315.933594 259.59375 M 315.9375 259.527344 C 315.9375 259.507812 315.9375 259.496094 315.9375 259.472656 C 315.9375 259.492188 315.9375 259.511719 315.9375 259.527344 M 315.9375 259.460938 C 315.9375 259.441406 315.9375 259.421875 315.9375 259.40625 C 315.9375 259.421875 315.9375 259.441406 315.9375 259.460938 M 315.9375 259.394531 C 315.9375 259.371094 315.9375 259.359375 315.9375 259.335938 C 315.9375 259.359375 315.9375 259.375 315.9375 259.394531 M 315.9375 259.328125 C 315.941406 259.195312 315.941406 259.070312 315.945312 258.933594 C 315.941406 259.066406 315.941406 259.199219 315.9375 259.328125 M 315.945312 258.933594 C 315.945312 258.917969 315.945312 258.894531 315.945312 258.878906 C 315.945312 258.894531 315.945312 258.917969 315.945312 258.933594 M 315.945312 258.867188 C 315.945312 258.847656 315.945312 258.832031 315.945312 258.816406 C 315.945312 258.832031 315.945312 258.851562 315.945312 258.867188 M 315.945312 258.796875 C 315.945312 258.78125 315.945312 258.765625 315.945312 258.75 C 315.945312 258.765625 315.945312 258.78125 315.945312 258.796875 M 315.945312 258.726562 C 315.945312 258.710938 315.945312 258.699219 315.945312 258.683594 C 315.945312 258.695312 315.945312 258.714844 315.945312 258.726562 M 315.949219 258.65625 C 315.949219 258.648438 315.949219 258.625 315.949219 258.613281 C 315.949219 258.628906 315.949219 258.644531 315.949219 258.65625 M 315.949219 258.589844 C 315.949219 258.578125 315.949219 258.558594 315.949219 258.546875 C 315.949219 258.5625 315.949219 258.574219 315.949219 258.589844 M 315.949219 258.519531 C 315.949219 258.507812 315.949219 258.488281 315.949219 258.476562 C 315.949219 258.492188 315.949219 258.503906 315.949219 258.519531 M 315.949219 258.453125 C 315.949219 258.441406 315.949219 258.417969 315.949219 258.410156 C 315.949219 258.421875 315.949219 258.4375 315.949219 258.453125 M 315.953125 258.382812 C 315.953125 258.367188 315.953125 258.359375 315.953125 258.339844 C 315.953125 258.355469 315.953125 258.367188 315.953125 258.382812 M 315.953125 258.3125 C 315.953125 258.296875 315.953125 258.289062 315.953125 258.273438 C 315.953125 258.285156 315.953125 258.300781 315.953125 258.3125 M 315.953125 258.246094 C 315.953125 258.226562 315.953125 258.21875 315.953125 258.203125 C 315.953125 258.21875 315.953125 258.230469 315.953125 258.246094 M 315.953125 258.179688 C 315.953125 258.164062 315.953125 258.148438 315.953125 258.132812 C 315.953125 258.152344 315.953125 258.164062 315.953125 258.179688 M 315.953125 258.121094 C 315.953125 258.066406 315.953125 257.996094 315.953125 257.9375 C 315.953125 258 315.953125 258.058594 315.953125 258.121094 M 315.953125 257.929688 C 315.957031 257.914062 315.957031 257.898438 315.957031 257.882812 C 315.957031 257.902344 315.957031 257.914062 315.953125 257.929688 M 315.957031 257.859375 C 315.957031 257.84375 315.957031 257.835938 315.957031 257.820312 C 315.957031 257.835938 315.957031 257.84375 315.957031 257.859375 M 315.957031 257.789062 C 315.957031 257.773438 315.957031 257.769531 315.957031 257.753906 C 315.957031 257.765625 315.957031 257.777344 315.957031 257.789062 M 315.957031 257.71875 C 315.957031 257.703125 315.957031 257.699219 315.957031 257.683594 C 315.957031 257.695312 315.957031 257.707031 315.957031 257.71875 M 315.957031 257.652344 C 315.957031 257.640625 315.957031 257.625 315.957031 257.613281 C 315.957031 257.625 315.957031 257.640625 315.957031 257.652344 M 315.957031 257.582031 C 315.957031 257.570312 315.957031 257.554688 315.957031 257.542969 C 315.957031 257.554688 315.957031 257.570312 315.957031 257.582031 M 315.960938 257.511719 C 315.960938 257.5 315.960938 257.488281 315.960938 257.476562 C 315.960938 257.488281 315.960938 257.5 315.960938 257.511719 M 315.960938 257.441406 C 315.960938 257.429688 315.960938 257.417969 315.960938 257.40625 C 315.960938 257.417969 315.960938 257.429688 315.960938 257.441406 M 315.960938 257.371094 C 315.960938 257.359375 315.960938 257.347656 315.960938 257.335938 C 315.960938 257.347656 315.960938 257.359375 315.960938 257.371094 M 315.960938 257.304688 C 315.960938 257.292969 315.960938 257.277344 315.960938 257.265625 C 315.960938 257.277344 315.960938 257.289062 315.960938 257.304688 M 315.960938 257.234375 C 315.960938 257.222656 315.960938 257.210938 315.960938 257.199219 C 315.960938 257.210938 315.960938 257.222656 315.960938 257.234375 M 315.960938 257.160156 C 315.960938 257.152344 315.960938 257.140625 315.960938 257.128906 C 315.960938 257.140625 315.960938 257.148438 315.960938 257.160156 M 315.960938 257.089844 C 315.960938 257.078125 315.960938 257.070312 315.960938 257.058594 C 315.960938 257.070312 315.960938 257.078125 315.960938 257.089844 M 315.960938 257.019531 C 315.960938 257.007812 315.960938 257 315.960938 256.988281 C 315.960938 256.996094 315.960938 257.011719 315.960938 257.019531 M 315.960938 256.917969 L 315.960938 256.917969 M 315.960938 256.851562 C 315.960938 256.839844 315.960938 256.832031 315.960938 256.820312 C 315.960938 256.828125 315.960938 256.839844 315.960938 256.851562 M 315.960938 256.78125 C 315.960938 256.769531 315.960938 256.761719 315.960938 256.75 C 315.960938 256.761719 315.960938 256.769531 315.960938 256.78125 M 315.964844 256.710938 C 315.964844 256.699219 315.964844 256.691406 315.964844 256.675781 C 315.964844 256.691406 315.964844 256.699219 315.964844 256.710938 M 315.964844 256.640625 C 315.964844 256.632812 315.964844 256.613281 315.964844 256.609375 C 315.964844 256.621094 315.964844 256.628906 315.964844 256.640625 M 315.964844 256.570312 C 315.964844 256.558594 315.964844 256.550781 315.964844 256.539062 C 315.964844 256.546875 315.964844 256.5625 315.964844 256.570312 M 315.964844 256.5 C 315.964844 256.488281 315.964844 256.480469 315.964844 256.46875 C 315.964844 256.476562 315.964844 256.492188 315.964844 256.5 M 315.964844 256.429688 C 315.964844 256.417969 315.964844 256.410156 315.964844 256.398438 C 315.964844 256.410156 315.964844 256.417969 315.964844 256.429688 M 315.964844 256.359375 C 315.964844 256.347656 315.964844 256.339844 315.964844 256.328125 C 315.964844 256.339844 315.964844 256.347656 315.964844 256.359375 M 315.964844 256.289062 C 315.964844 256.277344 315.964844 256.269531 315.964844 256.257812 C 315.964844 256.265625 315.964844 256.28125 315.964844 256.289062 M 315.964844 256.21875 C 315.964844 256.207031 315.964844 256.199219 315.964844 256.1875 C 315.964844 256.195312 315.964844 256.207031 315.964844 256.21875 M 315.964844 256.148438 C 315.964844 256.140625 315.964844 256.125 315.964844 256.117188 C 315.964844 256.128906 315.964844 256.136719 315.964844 256.148438 M 315.964844 256.078125 C 315.964844 256.0625 315.964844 256.058594 315.964844 256.046875 C 315.964844 256.054688 315.964844 256.066406 315.964844 256.078125 M 211.613281 256.054688 C 210.707031 256.054688 209.921875 256.039062 209.265625 256.015625 C 209.265625 256.011719 209.265625 256.011719 209.265625 256.011719 C 209.921875 256.039062 210.707031 256.054688 211.613281 256.054688 C 215.609375 256.054688 222.023438 255.746094 230.933594 254.390625 C 222.023438 255.746094 215.613281 256.054688 211.613281 256.054688 M 315.964844 256 C 315.964844 255.992188 315.964844 255.988281 315.964844 255.976562 C 315.964844 255.984375 315.964844 255.996094 315.964844 256 M 315.964844 255.925781 C 315.964844 255.917969 315.964844 255.914062 315.964844 255.90625 C 315.964844 255.914062 315.964844 255.917969 315.964844 255.925781 " fill-opacity="1" fill-rule="nonzero"/></g><g clip-path="url(#ed731e1141)"><path fill="#a79fd7" d="M 313.625 287.503906 C 313.625 287.496094 313.625 287.5 313.628906 287.488281 C 313.625 287.496094 313.625 287.5 313.625 287.503906 M 313.632812 287.449219 C 313.636719 287.441406 313.636719 287.433594 313.636719 287.421875 C 313.636719 287.433594 313.636719 287.4375 313.632812 287.449219 M 313.644531 287.390625 C 313.644531 287.382812 313.648438 287.371094 313.648438 287.359375 C 313.644531 287.371094 313.644531 287.382812 313.644531 287.390625 M 313.652344 287.335938 C 313.652344 287.328125 313.65625 287.308594 313.65625 287.296875 C 313.65625 287.3125 313.652344 287.324219 313.652344 287.335938 M 313.660156 287.28125 C 313.664062 287.265625 313.664062 287.253906 313.667969 287.238281 C 313.664062 287.25 313.664062 287.265625 313.660156 287.28125 M 313.667969 287.222656 C 313.671875 287.203125 313.671875 287.199219 313.675781 287.179688 C 313.671875 287.195312 313.671875 287.210938 313.667969 287.222656 M 313.675781 287.167969 C 313.679688 287.148438 313.679688 287.140625 313.683594 287.121094 C 313.683594 287.136719 313.679688 287.152344 313.675781 287.167969 M 313.6875 287.113281 C 314.972656 278.734375 315.765625 269.628906 315.933594 259.738281 C 315.933594 259.738281 315.933594 259.738281 315.933594 259.742188 C 315.929688 259.761719 315.929688 259.777344 315.929688 259.800781 C 315.929688 259.804688 315.929688 259.800781 315.929688 259.804688 C 315.929688 259.828125 315.929688 259.84375 315.929688 259.867188 L 315.929688 259.871094 C 315.785156 268.226562 315.191406 276.019531 314.230469 283.289062 L 314.230469 283.292969 C 314.230469 283.304688 314.226562 283.328125 314.222656 283.339844 C 314.222656 283.34375 314.222656 283.351562 314.222656 283.351562 C 314.21875 283.367188 314.21875 283.382812 314.21875 283.394531 C 314.214844 283.402344 314.214844 283.40625 314.214844 283.414062 C 314.210938 283.425781 314.210938 283.4375 314.210938 283.453125 C 314.207031 283.460938 314.207031 283.46875 314.207031 283.476562 C 314.203125 283.484375 314.203125 283.5 314.203125 283.511719 C 314.199219 283.519531 314.199219 283.523438 314.199219 283.535156 C 314.195312 283.542969 314.195312 283.558594 314.195312 283.570312 C 314.191406 283.578125 314.191406 283.585938 314.191406 283.59375 C 314.1875 283.605469 314.1875 283.617188 314.1875 283.625 C 314.183594 283.636719 314.183594 283.648438 314.183594 283.65625 C 314.179688 283.667969 314.179688 283.675781 314.179688 283.6875 C 314.175781 283.699219 314.175781 283.710938 314.171875 283.722656 C 314.171875 283.726562 314.171875 283.738281 314.171875 283.742188 C 314.167969 283.757812 314.167969 283.773438 314.164062 283.789062 C 314.164062 283.792969 314.164062 283.796875 314.164062 283.800781 C 314.011719 284.917969 313.851562 286.019531 313.6875 287.113281 M 209.433594 260.84375 C 209.359375 259.253906 209.304688 257.644531 209.265625 256.011719 C 209.921875 256.039062 210.707031 256.054688 211.613281 256.054688 C 215.613281 256.054688 222.023438 255.746094 230.933594 254.390625 C 249.417969 251.582031 261.289062 246.527344 261.289062 246.527344 C 261.289062 246.527344 273.160156 251.582031 291.640625 254.390625 C 273.160156 251.582031 261.289062 246.527344 261.289062 246.527344 L 261.289062 252.726562 C 258.886719 251.886719 257.589844 251.332031 257.589844 251.332031 C 257.589844 251.332031 245.722656 256.390625 227.234375 259.199219 C 219.367188 260.394531 213.457031 260.773438 209.433594 260.84375 M 315.933594 259.734375 C 315.933594 259.710938 315.933594 259.695312 315.933594 259.671875 L 315.933594 259.675781 C 315.933594 259.699219 315.933594 259.710938 315.933594 259.730469 L 315.933594 259.734375 M 315.933594 259.664062 C 315.933594 259.644531 315.933594 259.628906 315.933594 259.605469 L 315.933594 259.609375 C 315.933594 259.632812 315.933594 259.640625 315.933594 259.664062 M 315.933594 259.597656 C 315.933594 259.574219 315.933594 259.5625 315.9375 259.539062 C 315.933594 259.5625 315.933594 259.570312 315.933594 259.59375 L 315.933594 259.597656 M 315.9375 259.53125 C 315.9375 259.507812 315.9375 259.496094 315.9375 259.472656 C 315.9375 259.476562 315.9375 259.472656 315.9375 259.472656 C 315.9375 259.496094 315.9375 259.507812 315.9375 259.527344 L 315.9375 259.53125 M 315.9375 259.464844 C 315.9375 259.441406 315.9375 259.425781 315.9375 259.402344 L 315.9375 259.40625 C 315.9375 259.421875 315.9375 259.441406 315.9375 259.460938 L 315.9375 259.464844 M 315.9375 259.398438 C 315.9375 259.378906 315.9375 259.359375 315.9375 259.335938 C 315.9375 259.359375 315.9375 259.371094 315.9375 259.394531 L 315.9375 259.398438 M 315.9375 259.332031 C 315.941406 259.179688 315.941406 259.03125 315.945312 258.875 C 315.945312 258.875 315.945312 258.875 315.945312 258.878906 C 315.945312 258.894531 315.945312 258.917969 315.945312 258.933594 C 315.941406 259.070312 315.941406 259.195312 315.9375 259.328125 C 315.9375 259.332031 315.9375 259.332031 315.9375 259.332031 M 315.945312 258.867188 C 315.945312 258.851562 315.945312 258.832031 315.945312 258.8125 C 315.945312 258.816406 315.945312 258.8125 315.945312 258.816406 C 315.945312 258.832031 315.945312 258.847656 315.945312 258.867188 M 315.945312 258.796875 C 315.945312 258.78125 315.945312 258.765625 315.945312 258.746094 L 315.945312 258.75 C 315.945312 258.765625 315.945312 258.78125 315.945312 258.796875 C 315.945312 258.800781 315.945312 258.792969 315.945312 258.796875 M 315.945312 258.730469 C 315.945312 258.710938 315.945312 258.695312 315.949219 258.679688 C 315.945312 258.683594 315.949219 258.679688 315.945312 258.683594 C 315.945312 258.699219 315.945312 258.710938 315.945312 258.726562 L 315.945312 258.730469 M 315.949219 258.660156 C 315.949219 258.640625 315.949219 258.628906 315.949219 258.613281 C 315.949219 258.625 315.949219 258.648438 315.949219 258.65625 L 315.949219 258.660156 M 315.949219 258.589844 C 315.949219 258.582031 315.949219 258.558594 315.949219 258.546875 C 315.949219 258.558594 315.949219 258.578125 315.949219 258.589844 C 315.949219 258.59375 315.949219 258.589844 315.949219 258.589844 M 315.949219 258.519531 C 315.949219 258.511719 315.949219 258.488281 315.949219 258.476562 C 315.949219 258.488281 315.949219 258.507812 315.949219 258.519531 M 315.949219 258.453125 C 315.949219 258.4375 315.949219 258.425781 315.949219 258.40625 L 315.949219 258.410156 C 315.949219 258.417969 315.949219 258.441406 315.949219 258.453125 M 315.953125 258.382812 C 315.953125 258.367188 315.953125 258.355469 315.953125 258.339844 C 315.953125 258.359375 315.953125 258.367188 315.953125 258.382812 M 315.953125 258.316406 C 315.953125 258.296875 315.953125 258.289062 315.953125 258.273438 C 315.953125 258.289062 315.953125 258.296875 315.953125 258.3125 C 315.953125 258.316406 315.953125 258.3125 315.953125 258.316406 M 315.953125 258.246094 C 315.953125 258.230469 315.953125 258.21875 315.953125 258.203125 C 315.953125 258.21875 315.953125 258.226562 315.953125 258.246094 M 315.953125 258.183594 C 315.953125 258.167969 315.953125 258.148438 315.953125 258.132812 C 315.953125 258.148438 315.953125 258.164062 315.953125 258.179688 L 315.953125 258.183594 M 315.953125 258.125 C 315.953125 258.042969 315.953125 257.964844 315.957031 257.878906 L 315.957031 257.882812 C 315.957031 257.898438 315.957031 257.914062 315.953125 257.929688 L 315.953125 257.9375 C 315.953125 257.996094 315.953125 258.066406 315.953125 258.121094 L 315.953125 258.125 M 315.957031 257.859375 C 315.957031 257.84375 315.957031 257.835938 315.957031 257.816406 L 315.957031 257.820312 C 315.957031 257.835938 315.957031 257.84375 315.957031 257.859375 M 315.957031 257.789062 C 315.957031 257.773438 315.957031 257.769531 315.957031 257.75 L 315.957031 257.753906 C 315.957031 257.769531 315.957031 257.773438 315.957031 257.789062 M 315.957031 257.71875 C 315.957031 257.703125 315.957031 257.699219 315.957031 257.683594 C 315.957031 257.699219 315.957031 257.703125 315.957031 257.71875 M 315.957031 257.652344 C 315.957031 257.640625 315.957031 257.625 315.957031 257.613281 C 315.957031 257.625 315.957031 257.640625 315.957031 257.652344 M 315.957031 257.582031 C 315.957031 257.570312 315.957031 257.554688 315.957031 257.542969 C 315.957031 257.546875 315.957031 257.542969 315.957031 257.542969 C 315.957031 257.554688 315.957031 257.570312 315.957031 257.582031 M 315.960938 257.511719 C 315.960938 257.5 315.960938 257.488281 315.960938 257.476562 C 315.960938 257.488281 315.960938 257.5 315.960938 257.511719 M 315.960938 257.441406 C 315.960938 257.429688 315.960938 257.417969 315.960938 257.40625 C 315.960938 257.417969 315.960938 257.429688 315.960938 257.441406 M 315.960938 257.375 C 315.960938 257.363281 315.960938 257.347656 315.960938 257.335938 C 315.960938 257.347656 315.960938 257.359375 315.960938 257.371094 L 315.960938 257.375 M 315.960938 257.304688 C 315.960938 257.292969 315.960938 257.277344 315.960938 257.265625 C 315.960938 257.277344 315.960938 257.292969 315.960938 257.304688 M 315.960938 257.234375 C 315.960938 257.214844 315.960938 257.214844 315.960938 257.199219 C 315.960938 257.210938 315.960938 257.222656 315.960938 257.234375 M 315.960938 257.160156 C 315.960938 257.152344 315.960938 257.140625 315.960938 257.128906 C 315.960938 257.140625 315.960938 257.152344 315.960938 257.160156 M 315.960938 257.089844 C 315.960938 257.082031 315.960938 257.070312 315.960938 257.058594 C 315.960938 257.070312 315.960938 257.078125 315.960938 257.089844 M 315.960938 257.023438 C 315.960938 257.011719 315.960938 257 315.960938 256.988281 C 315.960938 257 315.960938 257.007812 315.960938 257.019531 L 315.960938 257.023438 M 315.960938 256.921875 L 315.960938 256.914062 C 315.960938 256.917969 315.960938 256.914062 315.960938 256.917969 L 315.960938 256.921875 M 315.960938 256.851562 C 315.960938 256.839844 315.960938 256.832031 315.960938 256.820312 C 315.960938 256.832031 315.960938 256.839844 315.960938 256.851562 M 315.960938 256.78125 C 315.960938 256.769531 315.960938 256.757812 315.960938 256.746094 L 315.960938 256.75 C 315.960938 256.761719 315.960938 256.769531 315.960938 256.78125 M 315.964844 256.710938 C 315.964844 256.699219 315.964844 256.6875 315.964844 256.675781 C 315.964844 256.691406 315.964844 256.699219 315.964844 256.710938 M 315.964844 256.640625 C 315.964844 256.632812 315.964844 256.613281 315.964844 256.609375 C 315.964844 256.613281 315.964844 256.632812 315.964844 256.640625 M 315.964844 256.570312 C 315.964844 256.558594 315.964844 256.550781 315.964844 256.539062 C 315.964844 256.550781 315.964844 256.558594 315.964844 256.570312 M 315.964844 256.5 C 315.964844 256.488281 315.964844 256.480469 315.964844 256.46875 C 315.964844 256.480469 315.964844 256.488281 315.964844 256.5 M 315.964844 256.429688 C 315.964844 256.417969 315.964844 256.410156 315.964844 256.398438 C 315.964844 256.410156 315.964844 256.417969 315.964844 256.429688 M 315.964844 256.359375 C 315.964844 256.347656 315.964844 256.339844 315.964844 256.328125 C 315.964844 256.339844 315.964844 256.347656 315.964844 256.359375 M 315.964844 256.289062 C 315.964844 256.277344 315.964844 256.269531 315.964844 256.257812 C 315.964844 256.269531 315.964844 256.277344 315.964844 256.289062 M 315.964844 256.21875 C 315.964844 256.207031 315.964844 256.199219 315.964844 256.1875 C 315.964844 256.199219 315.964844 256.207031 315.964844 256.21875 M 315.964844 256.148438 C 315.964844 256.144531 315.964844 256.125 315.964844 256.117188 C 315.964844 256.125 315.964844 256.140625 315.964844 256.148438 M 315.964844 256.078125 C 315.964844 256.0625 315.964844 256.058594 315.964844 256.046875 C 315.964844 256.058594 315.964844 256.0625 315.964844 256.078125 M 315.964844 256 C 315.964844 255.992188 315.964844 255.988281 315.964844 255.976562 C 315.964844 255.988281 315.964844 255.992188 315.964844 256 M 315.964844 255.925781 C 315.964844 255.917969 315.964844 255.914062 315.964844 255.90625 C 315.964844 255.914062 315.964844 255.917969 315.964844 255.925781 " fill-opacity="1" fill-rule="nonzero"/></g><g clip-path="url(#5408ef1ae0)"><path fill="#d9d4ee" d="M 209.265625 256.015625 C 207.90625 255.964844 207.074219 255.886719 206.757812 255.855469 C 206.757812 255.851562 206.757812 255.851562 206.757812 255.851562 C 207.074219 255.886719 207.90625 255.964844 209.265625 256.015625 C 209.265625 256.011719 209.265625 256.011719 209.265625 256.011719 " fill-opacity="1" fill-rule="nonzero"/></g><g clip-path="url(#63986eb040)"><path fill="#9790d0" d="M 207.941406 260.859375 C 207.546875 260.859375 207.171875 260.855469 206.824219 260.851562 C 206.785156 259.203125 206.761719 257.542969 206.757812 255.851562 C 207.074219 255.886719 207.90625 255.964844 209.265625 256.015625 C 209.304688 257.644531 209.359375 259.253906 209.433594 260.84375 C 208.902344 260.855469 208.40625 260.859375 207.941406 260.859375 " fill-opacity="1" fill-rule="nonzero"/></g><g clip-path="url(#9c51d4e7b1)"><path fill="#d8d4ee" d="M 206.757812 255.855469 C 206.753906 255.851562 206.75 255.851562 206.746094 255.851562 C 206.75 255.851562 206.753906 255.851562 206.757812 255.855469 C 206.757812 255.851562 206.757812 255.851562 206.757812 255.851562 M 206.746094 255.851562 C 206.742188 255.851562 206.738281 255.851562 206.738281 255.851562 C 206.738281 255.851562 206.742188 255.851562 206.746094 255.851562 M 206.734375 255.851562 C 206.734375 255.851562 206.730469 255.851562 206.730469 255.851562 C 206.730469 255.851562 206.734375 255.851562 206.734375 255.851562 M 206.722656 255.847656 C 206.71875 255.847656 206.71875 255.847656 206.714844 255.847656 C 206.71875 255.847656 206.71875 255.847656 206.722656 255.847656 M 206.714844 255.847656 C 206.714844 255.847656 206.710938 255.847656 206.710938 255.847656 C 206.710938 255.847656 206.714844 255.847656 206.714844 255.847656 M 206.707031 255.847656 L 206.707031 255.847656 M 206.679688 255.84375 C 206.679688 255.84375 206.675781 255.84375 206.675781 255.84375 C 206.675781 255.84375 206.679688 255.84375 206.679688 255.84375 M 206.664062 255.84375 C 206.664062 255.84375 206.660156 255.84375 206.660156 255.84375 C 206.660156 255.84375 206.664062 255.84375 206.664062 255.84375 M 206.660156 255.839844 C 206.65625 255.839844 206.65625 255.839844 206.65625 255.839844 C 206.65625 255.839844 206.65625 255.839844 206.660156 255.839844 M 206.652344 255.839844 L 206.652344 255.839844 M 206.636719 255.839844 L 206.636719 255.839844 M 206.632812 255.839844 L 206.632812 255.839844 M 206.628906 255.839844 C 206.628906 255.839844 206.628906 255.839844 206.625 255.839844 C 206.628906 255.839844 206.628906 255.839844 206.628906 255.839844 M 206.625 255.839844 C 206.617188 255.835938 206.613281 255.835938 206.613281 255.835938 C 206.613281 255.835938 206.617188 255.835938 206.625 255.839844 " fill-opacity="1" fill-rule="nonzero"/></g><g clip-path="url(#85bf9917c4)"><path fill="#c0bae3" d="M 206.824219 260.851562 C 206.785156 260.847656 206.742188 260.847656 206.703125 260.847656 C 206.667969 259.183594 206.609375 257.542969 206.609375 255.835938 C 206.609375 255.835938 206.609375 255.835938 206.613281 255.835938 C 206.613281 255.835938 206.617188 255.835938 206.625 255.839844 C 206.628906 255.839844 206.628906 255.839844 206.628906 255.839844 C 206.628906 255.839844 206.632812 255.839844 206.632812 255.839844 C 206.632812 255.839844 206.636719 255.839844 206.636719 255.839844 C 206.640625 255.839844 206.648438 255.839844 206.652344 255.839844 C 206.652344 255.839844 206.65625 255.839844 206.65625 255.839844 C 206.65625 255.839844 206.65625 255.839844 206.660156 255.839844 C 206.660156 255.839844 206.660156 255.84375 206.660156 255.84375 C 206.660156 255.84375 206.664062 255.84375 206.664062 255.84375 C 206.667969 255.84375 206.671875 255.84375 206.675781 255.84375 C 206.675781 255.84375 206.679688 255.84375 206.679688 255.84375 C 206.6875 255.847656 206.695312 255.847656 206.707031 255.847656 C 206.710938 255.847656 206.710938 255.847656 206.710938 255.847656 C 206.710938 255.847656 206.714844 255.847656 206.714844 255.847656 C 206.71875 255.847656 206.71875 255.847656 206.722656 255.847656 C 206.722656 255.847656 206.726562 255.851562 206.730469 255.851562 C 206.730469 255.851562 206.734375 255.851562 206.734375 255.851562 C 206.734375 255.851562 206.738281 255.851562 206.738281 255.851562 C 206.738281 255.851562 206.742188 255.851562 206.746094 255.851562 C 206.75 255.851562 206.753906 255.851562 206.757812 255.855469 C 206.761719 257.542969 206.785156 259.203125 206.824219 260.851562 " fill-opacity="1" fill-rule="nonzero"/></g><path fill="#eae7f5" d="M 286.753906 263.449219 C 271.246094 261.09375 261.289062 256.851562 261.289062 256.851562 C 261.289062 256.851562 251.328125 261.09375 235.820312 263.449219 C 222.082031 265.535156 215.414062 264.660156 215.414062 264.660156 C 215.414062 342.453125 261.289062 364.449219 261.289062 364.449219 C 261.289062 364.449219 307.164062 342.453125 307.164062 264.660156 C 307.164062 264.660156 300.496094 265.535156 286.753906 263.449219 " fill-opacity="1" fill-rule="nonzero"/><path fill="#efecf8" d="M 261.214844 361.757812 C 261.214844 361.757812 218.71875 341.375 217.832031 269.636719 C 218.691406 269.621094 219.648438 269.589844 220.714844 269.53125 C 222.527344 270.417969 224.300781 271.332031 226.03125 272.265625 C 232.386719 310.273438 251.457031 328.867188 261.289062 336.136719 L 261.289062 361.722656 C 261.238281 361.746094 261.214844 361.757812 261.214844 361.757812 " fill-opacity="1" fill-rule="nonzero"/><path fill="#d4ceeb" d="M 216.523438 269.648438 C 216.160156 269.648438 215.820312 269.644531 215.507812 269.640625 C 215.460938 267.996094 215.414062 266.359375 215.414062 264.660156 C 215.414062 265.484375 215.449219 266.265625 215.457031 267.078125 C 216.253906 267.433594 217.042969 267.789062 217.820312 268.152344 C 217.820312 268.652344 217.824219 269.140625 217.832031 269.636719 C 217.367188 269.644531 216.929688 269.648438 216.523438 269.648438 " fill-opacity="1" fill-rule="nonzero"/><path fill="#d8d3ee" d="M 217.832031 269.636719 C 217.824219 269.140625 217.820312 268.652344 217.820312 268.152344 C 218.796875 268.605469 219.761719 269.066406 220.714844 269.53125 C 219.648438 269.589844 218.691406 269.621094 217.832031 269.636719 " fill-opacity="1" fill-rule="nonzero"/><g clip-path="url(#4f3ecfd19f)"><path fill="#b9b3e0" d="M 261.289062 374.777344 C 261.375 374.734375 273.265625 368.996094 285.933594 353.496094 C 285.925781 353.507812 285.914062 353.523438 285.902344 353.535156 C 297.023438 339.953125 308.75 318.863281 313.625 287.503906 C 303.21875 354.402344 261.636719 374.605469 261.289062 374.773438 C 261.289062 374.773438 261.289062 374.777344 261.289062 374.777344 M 263.839844 369.527344 C 263.839844 369.527344 262.910156 369.078125 261.289062 368.089844 L 261.289062 364.449219 C 261.289062 364.449219 302.695312 344.601562 306.832031 275.90625 C 306.839844 275.746094 306.847656 275.574219 306.859375 275.417969 C 306.859375 275.414062 306.859375 275.410156 306.859375 275.40625 C 306.859375 275.394531 306.859375 275.378906 306.863281 275.367188 C 306.863281 275.363281 306.863281 275.359375 306.863281 275.355469 C 306.863281 275.339844 306.863281 275.332031 306.863281 275.320312 C 306.863281 275.3125 306.863281 275.308594 306.863281 275.304688 C 306.867188 275.289062 306.867188 275.28125 306.867188 275.265625 C 306.867188 275.265625 306.867188 275.257812 306.867188 275.253906 C 306.867188 275.242188 306.871094 275.226562 306.871094 275.21875 C 306.871094 275.210938 306.871094 275.203125 306.871094 275.199219 C 306.871094 275.191406 306.871094 275.175781 306.871094 275.167969 C 306.875 275.160156 306.875 275.15625 306.875 275.148438 C 306.875 275.140625 306.875 275.125 306.875 275.117188 C 306.875 275.109375 306.875 275.101562 306.878906 275.097656 C 306.878906 275.085938 306.878906 275.074219 306.878906 275.066406 C 306.878906 275.058594 306.878906 275.050781 306.878906 275.046875 C 306.878906 275.03125 306.878906 275.027344 306.882812 275.015625 C 306.882812 275.007812 306.882812 275 306.882812 274.992188 C 306.882812 274.976562 306.882812 274.976562 306.882812 274.964844 C 306.886719 274.957031 306.886719 274.945312 306.886719 274.9375 C 306.886719 274.929688 306.886719 274.921875 306.886719 274.914062 C 306.886719 274.902344 306.886719 274.894531 306.886719 274.882812 C 306.890625 274.875 306.890625 274.871094 306.890625 274.859375 C 306.890625 274.851562 306.890625 274.839844 306.890625 274.832031 C 306.890625 274.824219 306.890625 274.816406 306.894531 274.808594 C 306.894531 274.792969 306.894531 274.773438 306.894531 274.757812 C 306.894531 274.753906 306.894531 274.753906 306.894531 274.75 C 306.898438 274.734375 306.898438 274.71875 306.898438 274.703125 C 306.898438 274.699219 306.898438 274.699219 306.898438 274.695312 C 306.898438 274.679688 306.902344 274.667969 306.902344 274.652344 C 306.902344 274.648438 306.902344 274.648438 306.902344 274.640625 C 306.902344 274.628906 306.902344 274.613281 306.902344 274.601562 C 306.902344 274.59375 306.902344 274.589844 306.902344 274.585938 C 306.90625 274.574219 306.90625 274.5625 306.90625 274.546875 C 306.90625 274.542969 306.90625 274.535156 306.90625 274.53125 C 306.910156 274.519531 306.910156 274.507812 306.910156 274.496094 C 306.910156 274.492188 306.910156 274.484375 306.910156 274.480469 C 306.910156 274.464844 306.910156 274.457031 306.910156 274.441406 C 306.910156 274.4375 306.914062 274.433594 306.914062 274.425781 C 306.914062 274.414062 306.914062 274.402344 306.914062 274.390625 C 306.914062 274.382812 306.914062 274.382812 306.914062 274.375 C 306.917969 274.363281 306.917969 274.351562 306.917969 274.335938 C 306.917969 274.328125 306.917969 274.332031 306.917969 274.320312 C 306.917969 274.308594 306.917969 274.296875 306.917969 274.285156 C 306.921875 274.28125 306.921875 274.273438 306.921875 274.269531 C 306.921875 274.257812 306.921875 274.242188 306.921875 274.230469 C 306.921875 274.226562 306.921875 274.222656 306.925781 274.21875 C 306.925781 274.203125 306.925781 274.191406 306.925781 274.175781 C 306.925781 274.171875 306.925781 274.171875 306.925781 274.167969 C 306.925781 274.148438 306.925781 274.136719 306.929688 274.117188 L 306.929688 274.113281 C 306.9375 273.9375 306.945312 273.757812 306.957031 273.578125 C 306.957031 273.558594 306.957031 273.542969 306.957031 273.527344 L 306.957031 273.523438 C 307.070312 271.101562 307.140625 268.621094 307.15625 266.078125 C 307.15625 266.0625 307.15625 266.042969 307.15625 266.023438 L 307.15625 266.019531 C 307.15625 266.003906 307.15625 265.984375 307.15625 265.96875 L 307.15625 265.964844 C 307.15625 265.949219 307.15625 265.929688 307.15625 265.914062 L 307.15625 265.90625 C 307.15625 265.890625 307.15625 265.875 307.160156 265.855469 L 307.160156 265.851562 C 307.160156 265.835938 307.160156 265.816406 307.160156 265.800781 L 307.160156 265.796875 C 307.160156 265.664062 307.160156 265.53125 307.160156 265.402344 L 307.160156 265.398438 C 307.160156 265.382812 307.160156 265.363281 307.160156 265.34375 L 307.160156 265.335938 C 307.160156 265.320312 307.160156 265.304688 307.160156 265.289062 C 307.160156 265.285156 307.160156 265.285156 307.160156 265.277344 C 307.160156 265.265625 307.160156 265.25 307.160156 265.238281 C 307.160156 265.230469 307.160156 265.222656 307.160156 265.21875 C 307.160156 265.207031 307.160156 265.195312 307.160156 265.179688 C 307.160156 265.175781 307.160156 265.167969 307.160156 265.164062 C 307.160156 265.152344 307.160156 265.136719 307.160156 265.125 C 307.160156 265.117188 307.160156 265.117188 307.160156 265.105469 C 307.160156 265.09375 307.160156 265.082031 307.160156 265.070312 C 307.160156 265.058594 307.160156 265.0625 307.160156 265.050781 C 307.160156 265.039062 307.160156 265.027344 307.160156 265.015625 C 307.160156 265.003906 307.160156 265.003906 307.160156 264.996094 C 307.164062 264.980469 307.164062 264.972656 307.164062 264.957031 C 307.164062 264.953125 307.164062 264.945312 307.164062 264.941406 C 307.164062 264.925781 307.164062 264.914062 307.164062 264.902344 C 307.164062 264.898438 307.164062 264.890625 307.164062 264.882812 C 307.164062 264.875 307.164062 264.855469 307.164062 264.84375 C 307.164062 264.839844 307.164062 264.832031 307.164062 264.828125 C 307.164062 264.816406 307.164062 264.800781 307.164062 264.789062 C 307.164062 264.785156 307.164062 264.777344 307.164062 264.773438 C 307.164062 264.761719 307.164062 264.746094 307.164062 264.730469 C 307.164062 264.726562 307.164062 264.722656 307.164062 264.714844 C 307.164062 264.699219 307.164062 264.679688 307.164062 264.660156 C 307.164062 264.660156 307.164062 264.660156 307.160156 264.660156 C 307.160156 264.660156 305.773438 264.84375 302.964844 264.84375 C 299.609375 264.84375 294.230469 264.585938 286.753906 263.449219 C 271.246094 261.09375 261.289062 256.851562 261.289062 256.851562 L 261.289062 252.726562 C 266.15625 254.429688 275.566406 257.316406 287.945312 259.199219 C 296.851562 260.550781 303.265625 260.859375 307.265625 260.859375 C 310.617188 260.859375 312.269531 260.644531 312.269531 260.644531 C 312.269531 296.859375 303.925781 322.910156 293.757812 341.226562 C 279.285156 362.101562 263.839844 369.527344 263.839844 369.527344 M 313.628906 287.488281 C 313.628906 287.476562 313.632812 287.460938 313.632812 287.449219 C 313.632812 287.457031 313.628906 287.480469 313.628906 287.488281 M 313.636719 287.421875 C 313.640625 287.414062 313.640625 287.402344 313.644531 287.390625 C 313.640625 287.40625 313.640625 287.410156 313.636719 287.421875 M 313.648438 287.359375 C 313.648438 287.351562 313.648438 287.34375 313.652344 287.335938 C 313.648438 287.34375 313.648438 287.351562 313.648438 287.359375 M 313.65625 287.296875 C 313.660156 287.289062 313.660156 287.289062 313.660156 287.28125 C 313.660156 287.285156 313.65625 287.292969 313.65625 287.296875 M 313.667969 287.238281 C 313.667969 287.234375 313.667969 287.230469 313.667969 287.222656 C 313.667969 287.226562 313.667969 287.234375 313.667969 287.238281 M 313.675781 287.179688 C 313.675781 287.175781 313.675781 287.171875 313.675781 287.167969 L 313.675781 287.179688 M 313.683594 287.121094 C 313.683594 287.117188 313.6875 287.117188 313.6875 287.113281 L 313.683594 287.121094 M 315.933594 259.738281 L 315.933594 259.734375 L 315.933594 259.738281 M 315.933594 259.671875 C 315.933594 259.671875 315.933594 259.667969 315.933594 259.664062 L 315.933594 259.671875 M 315.933594 259.605469 C 315.933594 259.601562 315.933594 259.601562 315.933594 259.597656 L 315.933594 259.605469 M 315.9375 259.539062 C 315.9375 259.535156 315.9375 259.535156 315.9375 259.53125 L 315.9375 259.539062 M 315.9375 259.472656 C 315.9375 259.46875 315.9375 259.464844 315.9375 259.464844 L 315.9375 259.472656 M 315.9375 259.402344 C 315.9375 259.402344 315.9375 259.402344 315.9375 259.398438 L 315.9375 259.402344 M 315.9375 259.335938 L 315.9375 259.332031 L 315.9375 259.335938 M 315.945312 258.875 C 315.945312 258.871094 315.945312 258.871094 315.945312 258.867188 L 315.945312 258.875 M 315.945312 258.8125 C 315.945312 258.8125 315.945312 258.800781 315.945312 258.796875 C 315.945312 258.804688 315.945312 258.808594 315.945312 258.8125 M 315.945312 258.746094 C 315.945312 258.742188 315.945312 258.734375 315.945312 258.730469 C 315.945312 258.734375 315.945312 258.742188 315.945312 258.746094 M 315.949219 258.679688 C 315.949219 258.675781 315.949219 258.664062 315.949219 258.660156 C 315.949219 258.664062 315.949219 258.675781 315.949219 258.679688 M 315.949219 258.613281 C 315.949219 258.605469 315.949219 258.597656 315.949219 258.589844 C 315.949219 258.601562 315.949219 258.601562 315.949219 258.613281 M 315.949219 258.546875 C 315.949219 258.539062 315.949219 258.527344 315.949219 258.519531 C 315.949219 258.53125 315.949219 258.535156 315.949219 258.546875 M 315.949219 258.476562 C 315.949219 258.464844 315.949219 258.464844 315.949219 258.453125 C 315.949219 258.464844 315.949219 258.464844 315.949219 258.476562 M 315.949219 258.40625 C 315.949219 258.398438 315.949219 258.394531 315.953125 258.382812 C 315.949219 258.390625 315.949219 258.402344 315.949219 258.40625 M 315.953125 258.339844 C 315.953125 258.335938 315.953125 258.320312 315.953125 258.316406 C 315.953125 258.320312 315.953125 258.335938 315.953125 258.339844 M 315.953125 258.273438 C 315.953125 258.261719 315.953125 258.257812 315.953125 258.246094 C 315.953125 258.253906 315.953125 258.265625 315.953125 258.273438 M 315.953125 258.203125 C 315.953125 258.195312 315.953125 258.191406 315.953125 258.183594 C 315.953125 258.191406 315.953125 258.195312 315.953125 258.203125 M 315.953125 258.132812 C 315.953125 258.128906 315.953125 258.128906 315.953125 258.125 L 315.953125 258.132812 M 315.957031 257.878906 C 315.957031 257.875 315.957031 257.867188 315.957031 257.859375 C 315.957031 257.867188 315.957031 257.875 315.957031 257.878906 M 315.957031 257.816406 C 315.957031 257.808594 315.957031 257.800781 315.957031 257.789062 C 315.957031 257.796875 315.957031 257.8125 315.957031 257.816406 M 315.957031 257.75 C 315.957031 257.738281 315.957031 257.734375 315.957031 257.71875 C 315.957031 257.726562 315.957031 257.746094 315.957031 257.75 M 315.957031 257.683594 C 315.957031 257.671875 315.957031 257.664062 315.957031 257.652344 C 315.957031 257.664062 315.957031 257.671875 315.957031 257.683594 M 315.957031 257.613281 C 315.957031 257.605469 315.957031 257.589844 315.957031 257.582031 C 315.957031 257.59375 315.957031 257.601562 315.957031 257.613281 M 315.957031 257.542969 C 315.960938 257.535156 315.960938 257.519531 315.960938 257.511719 C 315.960938 257.523438 315.960938 257.53125 315.957031 257.542969 M 315.960938 257.476562 C 315.960938 257.464844 315.960938 257.453125 315.960938 257.441406 C 315.960938 257.453125 315.960938 257.464844 315.960938 257.476562 M 315.960938 257.40625 C 315.960938 257.394531 315.960938 257.386719 315.960938 257.375 C 315.960938 257.382812 315.960938 257.394531 315.960938 257.40625 M 315.960938 257.335938 C 315.960938 257.328125 315.960938 257.3125 315.960938 257.304688 C 315.960938 257.316406 315.960938 257.324219 315.960938 257.335938 M 315.960938 257.265625 C 315.960938 257.253906 315.960938 257.246094 315.960938 257.234375 C 315.960938 257.246094 315.960938 257.253906 315.960938 257.265625 M 315.960938 257.199219 C 315.960938 257.1875 315.960938 257.175781 315.960938 257.160156 C 315.960938 257.171875 315.960938 257.1875 315.960938 257.199219 M 315.960938 257.128906 C 315.960938 257.117188 315.960938 257.105469 315.960938 257.089844 C 315.960938 257.101562 315.960938 257.117188 315.960938 257.128906 M 315.960938 257.058594 C 315.960938 257.046875 315.960938 257.035156 315.960938 257.023438 C 315.960938 257.035156 315.960938 257.046875 315.960938 257.058594 M 315.960938 256.988281 C 315.960938 256.964844 315.960938 256.945312 315.960938 256.921875 C 315.960938 256.941406 315.960938 256.964844 315.960938 256.988281 M 315.960938 256.914062 C 315.960938 256.890625 315.960938 256.871094 315.960938 256.851562 C 315.960938 256.875 315.960938 256.890625 315.960938 256.914062 M 315.960938 256.820312 C 315.960938 256.808594 315.960938 256.792969 315.960938 256.78125 C 315.960938 256.792969 315.960938 256.808594 315.960938 256.820312 M 315.960938 256.746094 C 315.960938 256.734375 315.960938 256.722656 315.964844 256.710938 C 315.960938 256.722656 315.960938 256.738281 315.960938 256.746094 M 315.964844 256.675781 C 315.964844 256.664062 315.964844 256.652344 315.964844 256.640625 C 315.964844 256.65625 315.964844 256.660156 315.964844 256.675781 M 315.964844 256.609375 C 315.964844 256.597656 315.964844 256.582031 315.964844 256.570312 C 315.964844 256.585938 315.964844 256.59375 315.964844 256.609375 M 315.964844 256.539062 C 315.964844 256.523438 315.964844 256.515625 315.964844 256.5 C 315.964844 256.511719 315.964844 256.527344 315.964844 256.539062 M 315.964844 256.46875 C 315.964844 256.457031 315.964844 256.441406 315.964844 256.429688 C 315.964844 256.441406 315.964844 256.457031 315.964844 256.46875 M 315.964844 256.398438 C 315.964844 256.386719 315.964844 256.371094 315.964844 256.359375 C 315.964844 256.371094 315.964844 256.386719 315.964844 256.398438 M 315.964844 256.328125 C 315.964844 256.316406 315.964844 256.300781 315.964844 256.289062 C 315.964844 256.300781 315.964844 256.316406 315.964844 256.328125 M 315.964844 256.257812 C 315.964844 256.242188 315.964844 256.234375 315.964844 256.21875 C 315.964844 256.230469 315.964844 256.246094 315.964844 256.257812 M 315.964844 256.1875 C 315.964844 256.175781 315.964844 256.160156 315.964844 256.148438 C 315.964844 256.164062 315.964844 256.171875 315.964844 256.1875 M 315.964844 256.117188 C 315.964844 256.101562 315.964844 256.089844 315.964844 256.078125 C 315.964844 256.09375 315.964844 256.101562 315.964844 256.117188 M 315.964844 256.046875 C 315.964844 256.03125 315.964844 256.015625 315.964844 256 C 315.964844 256.011719 315.964844 256.035156 315.964844 256.046875 M 315.964844 255.976562 C 315.964844 255.960938 315.964844 255.941406 315.964844 255.925781 C 315.964844 255.941406 315.964844 255.960938 315.964844 255.976562 M 315.964844 255.90625 C 315.964844 255.882812 315.964844 255.859375 315.964844 255.835938 C 315.964844 255.859375 315.964844 255.886719 315.964844 255.90625 " fill-opacity="1" fill-rule="nonzero"/></g><g clip-path="url(#2e0bf0c78e)"><path fill="#e3e0f3" d="M 261.289062 374.777344 C 261.320312 374.761719 273.347656 368.960938 286.113281 353.246094 C 286.054688 353.332031 285.996094 353.410156 285.933594 353.496094 C 273.265625 368.996094 261.375 374.734375 261.289062 374.777344 " fill-opacity="1" fill-rule="nonzero"/></g><g clip-path="url(#20dc2085b9)"><path fill="#ada6da" d="M 261.425781 374.265625 C 261.425781 374.265625 261.378906 374.246094 261.289062 374.199219 L 261.289062 368.089844 C 262.910156 369.078125 263.839844 369.527344 263.839844 369.527344 C 263.839844 369.527344 279.285156 362.101562 293.757812 341.226562 C 291.890625 344.59375 289.960938 347.695312 288.011719 350.554688 C 274.597656 367.949219 261.425781 374.265625 261.425781 374.265625 " fill-opacity="1" fill-rule="nonzero"/></g><g clip-path="url(#2f5d6c8343)"><path fill="#d2cdeb" d="M 261.289062 374.777344 L 261.289062 374.199219 C 261.378906 374.246094 261.425781 374.265625 261.425781 374.265625 C 261.425781 374.265625 274.597656 367.949219 288.011719 350.554688 C 287.378906 351.476562 286.75 352.371094 286.113281 353.246094 C 273.347656 368.960938 261.320312 374.761719 261.289062 374.777344 " fill-opacity="1" fill-rule="nonzero"/></g><g clip-path="url(#d2ca21c8c3)"><path fill="#efecf8" d="M 310.960938 256.054688 C 306.964844 256.054688 300.550781 255.746094 291.640625 254.390625 C 300.550781 255.746094 306.964844 256.054688 310.960938 256.054688 C 313.777344 256.054688 315.394531 255.902344 315.839844 255.851562 C 315.394531 255.902344 313.777344 256.054688 310.960938 256.054688 M 315.839844 255.851562 C 315.84375 255.851562 315.84375 255.851562 315.84375 255.851562 C 315.84375 255.851562 315.84375 255.851562 315.839844 255.851562 M 315.855469 255.847656 C 315.859375 255.847656 315.863281 255.847656 315.871094 255.847656 C 315.863281 255.847656 315.859375 255.847656 315.855469 255.847656 M 315.871094 255.847656 L 315.871094 255.847656 M 315.878906 255.847656 L 315.878906 255.847656 M 315.894531 255.84375 C 315.898438 255.84375 315.898438 255.84375 315.902344 255.84375 C 315.898438 255.84375 315.898438 255.84375 315.894531 255.84375 M 315.910156 255.84375 C 315.914062 255.84375 315.917969 255.839844 315.921875 255.839844 C 315.917969 255.839844 315.914062 255.84375 315.910156 255.84375 M 315.921875 255.839844 C 315.921875 255.839844 315.921875 255.839844 315.925781 255.839844 C 315.921875 255.839844 315.921875 255.839844 315.921875 255.839844 M 315.9375 255.839844 L 315.9375 255.839844 M 315.941406 255.839844 C 315.941406 255.839844 315.945312 255.839844 315.945312 255.839844 C 315.945312 255.839844 315.941406 255.839844 315.941406 255.839844 M 315.945312 255.839844 C 315.949219 255.839844 315.949219 255.839844 315.949219 255.839844 C 315.949219 255.839844 315.949219 255.839844 315.945312 255.839844 M 315.953125 255.839844 C 315.957031 255.835938 315.960938 255.835938 315.964844 255.835938 C 315.960938 255.835938 315.957031 255.835938 315.953125 255.839844 " fill-opacity="1" fill-rule="nonzero"/></g><g clip-path="url(#c783cad1fb)"><path fill="#bfb9e3" d="M 285.902344 353.535156 C 285.914062 353.523438 285.925781 353.507812 285.933594 353.496094 C 294.539062 342.96875 303.503906 327.9375 309.371094 307.132812 C 307.003906 315.425781 304.144531 322.789062 301.011719 329.316406 C 298.675781 333.699219 296.230469 337.660156 293.757812 341.226562 C 303.925781 322.910156 312.269531 296.859375 312.269531 260.644531 C 312.269531 260.644531 310.617188 260.859375 307.265625 260.859375 C 303.265625 260.859375 296.851562 260.550781 287.945312 259.199219 C 275.566406 257.316406 266.15625 254.429688 261.289062 252.726562 L 261.289062 246.527344 C 261.289062 246.527344 273.160156 251.582031 291.640625 254.390625 C 300.550781 255.746094 306.964844 256.054688 310.960938 256.054688 C 313.777344 256.054688 315.394531 255.902344 315.839844 255.851562 C 315.84375 255.851562 315.84375 255.851562 315.84375 255.851562 C 315.847656 255.851562 315.851562 255.847656 315.855469 255.847656 C 315.859375 255.847656 315.863281 255.847656 315.871094 255.847656 C 315.875 255.847656 315.875 255.847656 315.878906 255.847656 C 315.886719 255.847656 315.890625 255.84375 315.894531 255.84375 C 315.898438 255.84375 315.898438 255.84375 315.902344 255.84375 C 315.902344 255.84375 315.90625 255.84375 315.910156 255.84375 C 315.914062 255.84375 315.917969 255.839844 315.921875 255.839844 C 315.921875 255.839844 315.921875 255.839844 315.925781 255.839844 C 315.929688 255.839844 315.933594 255.839844 315.9375 255.839844 C 315.941406 255.839844 315.941406 255.839844 315.941406 255.839844 C 315.941406 255.839844 315.945312 255.839844 315.945312 255.839844 C 315.949219 255.839844 315.949219 255.839844 315.949219 255.839844 C 315.949219 255.839844 315.949219 255.839844 315.953125 255.839844 C 315.957031 255.835938 315.960938 255.835938 315.964844 255.835938 C 315.964844 255.859375 315.964844 255.882812 315.964844 255.90625 C 315.964844 255.914062 315.964844 255.917969 315.964844 255.925781 C 315.964844 255.941406 315.964844 255.960938 315.964844 255.976562 C 315.964844 255.988281 315.964844 255.992188 315.964844 256 C 315.964844 256.015625 315.964844 256.03125 315.964844 256.046875 C 315.964844 256.058594 315.964844 256.0625 315.964844 256.078125 C 315.964844 256.089844 315.964844 256.101562 315.964844 256.117188 C 315.964844 256.125 315.964844 256.144531 315.964844 256.148438 C 315.964844 256.160156 315.964844 256.175781 315.964844 256.1875 C 315.964844 256.199219 315.964844 256.207031 315.964844 256.21875 C 315.964844 256.234375 315.964844 256.242188 315.964844 256.257812 C 315.964844 256.269531 315.964844 256.277344 315.964844 256.289062 C 315.964844 256.300781 315.964844 256.316406 315.964844 256.328125 C 315.964844 256.339844 315.964844 256.347656 315.964844 256.359375 C 315.964844 256.371094 315.964844 256.386719 315.964844 256.398438 C 315.964844 256.410156 315.964844 256.417969 315.964844 256.429688 C 315.964844 256.441406 315.964844 256.457031 315.964844 256.46875 C 315.964844 256.480469 315.964844 256.488281 315.964844 256.5 C 315.964844 256.515625 315.964844 256.523438 315.964844 256.539062 C 315.964844 256.550781 315.964844 256.558594 315.964844 256.570312 C 315.964844 256.582031 315.964844 256.597656 315.964844 256.609375 C 315.964844 256.613281 315.964844 256.632812 315.964844 256.640625 C 315.964844 256.652344 315.964844 256.664062 315.964844 256.675781 C 315.964844 256.6875 315.964844 256.699219 315.964844 256.710938 C 315.960938 256.722656 315.960938 256.734375 315.960938 256.746094 C 315.960938 256.757812 315.960938 256.769531 315.960938 256.78125 C 315.960938 256.792969 315.960938 256.808594 315.960938 256.820312 C 315.960938 256.832031 315.960938 256.839844 315.960938 256.851562 C 315.960938 256.871094 315.960938 256.890625 315.960938 256.914062 L 315.960938 256.921875 C 315.960938 256.945312 315.960938 256.964844 315.960938 256.988281 C 315.960938 257 315.960938 257.011719 315.960938 257.023438 C 315.960938 257.035156 315.960938 257.046875 315.960938 257.058594 C 315.960938 257.070312 315.960938 257.082031 315.960938 257.089844 C 315.960938 257.105469 315.960938 257.117188 315.960938 257.128906 C 315.960938 257.140625 315.960938 257.152344 315.960938 257.160156 C 315.960938 257.175781 315.960938 257.1875 315.960938 257.199219 C 315.960938 257.214844 315.960938 257.214844 315.960938 257.234375 C 315.960938 257.246094 315.960938 257.253906 315.960938 257.265625 C 315.960938 257.277344 315.960938 257.292969 315.960938 257.304688 C 315.960938 257.3125 315.960938 257.328125 315.960938 257.335938 C 315.960938 257.347656 315.960938 257.363281 315.960938 257.375 C 315.960938 257.386719 315.960938 257.394531 315.960938 257.40625 C 315.960938 257.417969 315.960938 257.429688 315.960938 257.441406 C 315.960938 257.453125 315.960938 257.464844 315.960938 257.476562 C 315.960938 257.488281 315.960938 257.5 315.960938 257.511719 C 315.960938 257.519531 315.960938 257.535156 315.957031 257.542969 C 315.957031 257.554688 315.957031 257.570312 315.957031 257.582031 C 315.957031 257.589844 315.957031 257.605469 315.957031 257.613281 C 315.957031 257.625 315.957031 257.640625 315.957031 257.652344 C 315.957031 257.664062 315.957031 257.671875 315.957031 257.683594 C 315.957031 257.699219 315.957031 257.703125 315.957031 257.71875 C 315.957031 257.734375 315.957031 257.738281 315.957031 257.75 C 315.957031 257.769531 315.957031 257.773438 315.957031 257.789062 C 315.957031 257.800781 315.957031 257.808594 315.957031 257.816406 C 315.957031 257.835938 315.957031 257.84375 315.957031 257.859375 C 315.957031 257.867188 315.957031 257.875 315.957031 257.878906 C 315.953125 257.964844 315.953125 258.042969 315.953125 258.125 C 315.953125 258.128906 315.953125 258.128906 315.953125 258.132812 C 315.953125 258.148438 315.953125 258.167969 315.953125 258.183594 C 315.953125 258.191406 315.953125 258.195312 315.953125 258.203125 C 315.953125 258.21875 315.953125 258.230469 315.953125 258.246094 C 315.953125 258.257812 315.953125 258.261719 315.953125 258.273438 C 315.953125 258.289062 315.953125 258.296875 315.953125 258.316406 C 315.953125 258.320312 315.953125 258.335938 315.953125 258.339844 C 315.953125 258.355469 315.953125 258.367188 315.953125 258.382812 C 315.949219 258.394531 315.949219 258.398438 315.949219 258.40625 C 315.949219 258.425781 315.949219 258.4375 315.949219 258.453125 C 315.949219 258.464844 315.949219 258.464844 315.949219 258.476562 C 315.949219 258.488281 315.949219 258.511719 315.949219 258.519531 C 315.949219 258.527344 315.949219 258.539062 315.949219 258.546875 C 315.949219 258.558594 315.949219 258.582031 315.949219 258.589844 C 315.949219 258.597656 315.949219 258.605469 315.949219 258.613281 C 315.949219 258.628906 315.949219 258.640625 315.949219 258.660156 C 315.949219 258.664062 315.949219 258.675781 315.949219 258.679688 C 315.945312 258.695312 315.945312 258.710938 315.945312 258.730469 C 315.945312 258.734375 315.945312 258.742188 315.945312 258.746094 C 315.945312 258.765625 315.945312 258.78125 315.945312 258.796875 C 315.945312 258.800781 315.945312 258.8125 315.945312 258.8125 C 315.945312 258.832031 315.945312 258.851562 315.945312 258.867188 C 315.945312 258.871094 315.945312 258.871094 315.945312 258.875 C 315.941406 259.03125 315.941406 259.179688 315.9375 259.332031 L 315.9375 259.335938 C 315.9375 259.359375 315.9375 259.378906 315.9375 259.398438 C 315.9375 259.402344 315.9375 259.402344 315.9375 259.402344 C 315.9375 259.425781 315.9375 259.441406 315.9375 259.464844 C 315.9375 259.464844 315.9375 259.46875 315.9375 259.472656 C 315.9375 259.496094 315.9375 259.507812 315.9375 259.53125 C 315.9375 259.535156 315.9375 259.535156 315.9375 259.539062 C 315.933594 259.5625 315.933594 259.574219 315.933594 259.597656 C 315.933594 259.601562 315.933594 259.601562 315.933594 259.605469 C 315.933594 259.628906 315.933594 259.644531 315.933594 259.664062 C 315.933594 259.667969 315.933594 259.671875 315.933594 259.671875 C 315.933594 259.695312 315.933594 259.710938 315.933594 259.734375 L 315.933594 259.738281 C 315.765625 269.628906 314.972656 278.734375 313.6875 287.113281 C 313.6875 287.117188 313.683594 287.117188 313.683594 287.121094 C 313.679688 287.140625 313.679688 287.148438 313.675781 287.167969 C 313.675781 287.171875 313.675781 287.175781 313.675781 287.179688 C 313.671875 287.199219 313.671875 287.203125 313.667969 287.222656 C 313.667969 287.230469 313.667969 287.234375 313.667969 287.238281 C 313.664062 287.253906 313.664062 287.265625 313.660156 287.28125 C 313.660156 287.289062 313.660156 287.289062 313.65625 287.296875 C 313.65625 287.308594 313.652344 287.328125 313.652344 287.335938 C 313.648438 287.34375 313.648438 287.351562 313.648438 287.359375 C 313.648438 287.371094 313.644531 287.382812 313.644531 287.390625 C 313.640625 287.402344 313.640625 287.414062 313.636719 287.421875 C 313.636719 287.433594 313.636719 287.441406 313.632812 287.449219 C 313.632812 287.460938 313.628906 287.476562 313.628906 287.488281 C 313.625 287.5 313.625 287.496094 313.625 287.503906 C 308.75 318.863281 297.023438 339.953125 285.902344 353.535156 " fill-opacity="1" fill-rule="nonzero"/></g><path fill="#ddd8f0" d="M 285.933594 353.496094 C 285.996094 353.410156 286.054688 353.332031 286.113281 353.246094 C 291.472656 346.652344 296.960938 338.308594 301.746094 327.914062 C 301.503906 328.386719 301.257812 328.851562 301.011719 329.316406 C 304.144531 322.789062 307.003906 315.425781 309.371094 307.132812 C 303.503906 327.9375 294.539062 342.96875 285.933594 353.496094 " fill-opacity="1" fill-rule="nonzero"/><path fill="#b5afde" d="M 288.011719 350.554688 C 289.960938 347.695312 291.890625 344.59375 293.757812 341.226562 C 296.230469 337.660156 298.675781 333.699219 301.011719 329.316406 C 296.96875 337.738281 292.476562 344.761719 288.011719 350.554688 " fill-opacity="1" fill-rule="nonzero"/><path fill="#d0cbea" d="M 286.113281 353.246094 C 286.75 352.371094 287.378906 351.476562 288.011719 350.554688 C 292.476562 344.761719 296.96875 337.738281 301.011719 329.316406 C 301.257812 328.851562 301.503906 328.386719 301.746094 327.914062 C 296.960938 338.308594 291.472656 346.652344 286.113281 353.246094 " fill-opacity="1" fill-rule="nonzero"/><path fill="#edeaf7" d="M 261.289062 364.449219 L 261.289062 361.722656 C 262.324219 361.203125 274.117188 355.050781 285.136719 339.027344 C 285.425781 339.785156 285.707031 340.542969 285.984375 341.296875 C 286.128906 341.089844 286.277344 340.878906 286.421875 340.667969 C 286.394531 340.714844 286.363281 340.761719 286.335938 340.808594 C 295.917969 327.027344 305.003906 306.222656 306.832031 275.90625 C 302.695312 344.601562 261.289062 364.449219 261.289062 364.449219 M 267.289062 339.960938 C 267.289062 339.960938 264.917969 338.820312 261.289062 336.136719 L 261.289062 299.71875 C 269.75 309.140625 276.179688 319.25 281.039062 329.46875 C 273.402344 337.027344 267.289062 339.960938 267.289062 339.960938 M 306.832031 275.90625 C 306.839844 275.742188 306.847656 275.578125 306.859375 275.417969 C 306.847656 275.574219 306.839844 275.746094 306.832031 275.90625 M 306.859375 275.40625 C 306.859375 275.394531 306.859375 275.378906 306.863281 275.367188 C 306.859375 275.378906 306.859375 275.394531 306.859375 275.40625 M 306.863281 275.355469 C 306.863281 275.34375 306.863281 275.328125 306.863281 275.320312 C 306.863281 275.332031 306.863281 275.339844 306.863281 275.355469 M 306.863281 275.304688 C 306.867188 275.289062 306.867188 275.28125 306.867188 275.265625 C 306.867188 275.28125 306.867188 275.289062 306.863281 275.304688 M 306.867188 275.253906 C 306.867188 275.242188 306.871094 275.230469 306.871094 275.21875 C 306.871094 275.226562 306.867188 275.242188 306.867188 275.253906 M 306.871094 275.199219 C 306.871094 275.1875 306.871094 275.179688 306.871094 275.167969 C 306.871094 275.175781 306.871094 275.191406 306.871094 275.199219 M 306.875 275.148438 C 306.875 275.140625 306.875 275.125 306.875 275.117188 C 306.875 275.125 306.875 275.140625 306.875 275.148438 M 306.878906 275.097656 C 306.878906 275.085938 306.878906 275.074219 306.878906 275.066406 C 306.878906 275.074219 306.878906 275.085938 306.878906 275.097656 M 306.878906 275.046875 C 306.878906 275.035156 306.878906 275.023438 306.882812 275.015625 C 306.878906 275.027344 306.878906 275.03125 306.878906 275.046875 M 306.882812 274.992188 C 306.882812 274.980469 306.882812 274.972656 306.882812 274.964844 C 306.882812 274.976562 306.882812 274.976562 306.882812 274.992188 M 306.886719 274.9375 C 306.886719 274.929688 306.886719 274.921875 306.886719 274.914062 C 306.886719 274.921875 306.886719 274.929688 306.886719 274.9375 M 306.886719 274.882812 C 306.890625 274.875 306.890625 274.867188 306.890625 274.859375 C 306.890625 274.871094 306.890625 274.875 306.886719 274.882812 M 306.890625 274.832031 C 306.890625 274.824219 306.890625 274.816406 306.894531 274.808594 C 306.890625 274.816406 306.890625 274.824219 306.890625 274.832031 M 306.894531 274.757812 C 306.894531 274.753906 306.894531 274.753906 306.894531 274.75 C 306.894531 274.753906 306.894531 274.753906 306.894531 274.757812 M 306.898438 274.703125 C 306.898438 274.703125 306.898438 274.699219 306.898438 274.695312 C 306.898438 274.699219 306.898438 274.699219 306.898438 274.703125 M 306.902344 274.652344 C 306.902344 274.648438 306.902344 274.648438 306.902344 274.640625 C 306.902344 274.648438 306.902344 274.648438 306.902344 274.652344 M 306.902344 274.601562 C 306.902344 274.597656 306.902344 274.589844 306.902344 274.585938 C 306.902344 274.589844 306.902344 274.59375 306.902344 274.601562 M 306.90625 274.546875 C 306.90625 274.542969 306.90625 274.535156 306.90625 274.53125 C 306.90625 274.535156 306.90625 274.542969 306.90625 274.546875 M 306.910156 274.496094 C 306.910156 274.492188 306.910156 274.484375 306.910156 274.480469 C 306.910156 274.484375 306.910156 274.492188 306.910156 274.496094 M 306.910156 274.441406 C 306.914062 274.4375 306.914062 274.433594 306.914062 274.425781 C 306.914062 274.433594 306.910156 274.4375 306.910156 274.441406 M 306.914062 274.390625 C 306.914062 274.386719 306.914062 274.378906 306.914062 274.375 C 306.914062 274.382812 306.914062 274.382812 306.914062 274.390625 M 306.917969 274.335938 C 306.917969 274.335938 306.917969 274.328125 306.917969 274.320312 C 306.917969 274.332031 306.917969 274.328125 306.917969 274.335938 M 306.917969 274.285156 C 306.921875 274.277344 306.921875 274.277344 306.921875 274.269531 C 306.921875 274.273438 306.921875 274.28125 306.917969 274.285156 M 306.921875 274.230469 C 306.921875 274.226562 306.921875 274.222656 306.925781 274.21875 C 306.921875 274.222656 306.921875 274.226562 306.921875 274.230469 M 306.925781 274.175781 C 306.925781 274.175781 306.925781 274.167969 306.925781 274.167969 C 306.925781 274.171875 306.925781 274.171875 306.925781 274.175781 M 306.929688 274.117188 C 306.929688 274.117188 306.929688 274.117188 306.929688 274.113281 L 306.929688 274.117188 M 306.957031 273.527344 L 306.957031 273.523438 L 306.957031 273.527344 M 307.15625 266.023438 C 307.15625 266.023438 307.15625 266.023438 307.15625 266.019531 L 307.15625 266.023438 M 307.15625 265.96875 L 307.15625 265.964844 L 307.15625 265.96875 M 307.15625 265.914062 C 307.15625 265.910156 307.15625 265.910156 307.15625 265.90625 L 307.15625 265.914062 M 307.160156 265.855469 L 307.160156 265.851562 L 307.160156 265.855469 M 307.160156 265.800781 C 307.160156 265.796875 307.160156 265.796875 307.160156 265.796875 L 307.160156 265.800781 M 307.160156 265.402344 L 307.160156 265.398438 L 307.160156 265.402344 M 307.160156 265.34375 C 307.160156 265.339844 307.160156 265.339844 307.160156 265.335938 L 307.160156 265.34375 M 307.160156 265.289062 C 307.160156 265.285156 307.160156 265.285156 307.160156 265.277344 C 307.160156 265.285156 307.160156 265.285156 307.160156 265.289062 M 307.160156 265.238281 C 307.160156 265.230469 307.160156 265.222656 307.160156 265.21875 C 307.160156 265.222656 307.160156 265.230469 307.160156 265.238281 M 307.160156 265.179688 C 307.160156 265.175781 307.160156 265.171875 307.160156 265.164062 C 307.160156 265.167969 307.160156 265.175781 307.160156 265.179688 M 307.160156 265.125 C 307.160156 265.117188 307.160156 265.113281 307.160156 265.105469 C 307.160156 265.117188 307.160156 265.117188 307.160156 265.125 M 307.160156 265.070312 C 307.160156 265.0625 307.160156 265.058594 307.160156 265.050781 C 307.160156 265.0625 307.160156 265.058594 307.160156 265.070312 M 307.160156 265.015625 C 307.160156 265.007812 307.160156 265 307.160156 264.996094 C 307.160156 265.003906 307.160156 265.003906 307.160156 265.015625 M 307.164062 264.957031 C 307.164062 264.953125 307.164062 264.945312 307.164062 264.941406 C 307.164062 264.945312 307.164062 264.953125 307.164062 264.957031 M 307.164062 264.902344 C 307.164062 264.894531 307.164062 264.890625 307.164062 264.882812 C 307.164062 264.890625 307.164062 264.898438 307.164062 264.902344 M 307.164062 264.84375 C 307.164062 264.839844 307.164062 264.835938 307.164062 264.828125 C 307.164062 264.832031 307.164062 264.839844 307.164062 264.84375 M 307.164062 264.789062 C 307.164062 264.785156 307.164062 264.777344 307.164062 264.773438 C 307.164062 264.777344 307.164062 264.785156 307.164062 264.789062 M 307.164062 264.730469 C 307.164062 264.726562 307.164062 264.722656 307.164062 264.714844 C 307.164062 264.722656 307.164062 264.726562 307.164062 264.730469 M 307.160156 264.660156 C 307.164062 264.660156 307.164062 264.660156 307.164062 264.660156 C 307.164062 264.660156 307.164062 264.660156 307.160156 264.660156 " fill-opacity="1" fill-rule="nonzero"/><path fill="#f1eff9" d="M 261.289062 361.722656 L 261.289062 336.136719 C 264.917969 338.820312 267.289062 339.960938 267.289062 339.960938 C 267.289062 339.960938 273.402344 337.027344 281.039062 329.46875 C 282.550781 332.648438 283.914062 335.84375 285.136719 339.027344 C 274.117188 355.050781 262.324219 361.203125 261.289062 361.722656 " fill-opacity="1" fill-rule="nonzero"/><path fill="#ada7da" d="M 306.859375 275.417969 C 306.859375 275.410156 306.859375 275.410156 306.859375 275.40625 C 306.859375 275.410156 306.859375 275.414062 306.859375 275.417969 M 306.863281 275.367188 C 306.863281 275.363281 306.863281 275.359375 306.863281 275.355469 C 306.863281 275.359375 306.863281 275.363281 306.863281 275.367188 M 306.863281 275.320312 C 306.863281 275.316406 306.863281 275.308594 306.863281 275.304688 C 306.863281 275.308594 306.863281 275.3125 306.863281 275.320312 M 306.867188 275.265625 C 306.867188 275.265625 306.867188 275.257812 306.867188 275.253906 C 306.867188 275.257812 306.867188 275.265625 306.867188 275.265625 M 306.871094 275.21875 C 306.871094 275.207031 306.871094 275.210938 306.871094 275.199219 C 306.871094 275.203125 306.871094 275.210938 306.871094 275.21875 M 306.871094 275.167969 C 306.875 275.15625 306.875 275.15625 306.875 275.148438 C 306.875 275.15625 306.875 275.160156 306.871094 275.167969 M 306.875 275.117188 C 306.875 275.105469 306.875 275.105469 306.878906 275.097656 C 306.875 275.101562 306.875 275.109375 306.875 275.117188 M 306.878906 275.066406 C 306.878906 275.058594 306.878906 275.050781 306.878906 275.046875 C 306.878906 275.050781 306.878906 275.058594 306.878906 275.066406 M 306.882812 275.015625 C 306.882812 275.011719 306.882812 274.996094 306.882812 274.992188 C 306.882812 275 306.882812 275.007812 306.882812 275.015625 M 306.882812 274.964844 C 306.882812 274.960938 306.886719 274.941406 306.886719 274.9375 C 306.886719 274.945312 306.886719 274.957031 306.882812 274.964844 M 306.886719 274.914062 C 306.886719 274.902344 306.886719 274.894531 306.886719 274.882812 C 306.886719 274.894531 306.886719 274.902344 306.886719 274.914062 M 306.890625 274.859375 C 306.890625 274.851562 306.890625 274.839844 306.890625 274.832031 C 306.890625 274.839844 306.890625 274.851562 306.890625 274.859375 M 306.894531 274.808594 C 306.894531 274.792969 306.894531 274.773438 306.894531 274.757812 C 306.894531 274.773438 306.894531 274.792969 306.894531 274.808594 M 306.894531 274.75 C 306.898438 274.734375 306.898438 274.71875 306.898438 274.703125 C 306.898438 274.71875 306.898438 274.734375 306.894531 274.75 M 306.898438 274.695312 C 306.898438 274.683594 306.902344 274.664062 306.902344 274.652344 C 306.902344 274.667969 306.898438 274.679688 306.898438 274.695312 M 306.902344 274.640625 C 306.902344 274.628906 306.902344 274.613281 306.902344 274.601562 C 306.902344 274.613281 306.902344 274.628906 306.902344 274.640625 M 306.902344 274.585938 C 306.90625 274.574219 306.90625 274.5625 306.90625 274.546875 C 306.90625 274.5625 306.90625 274.574219 306.902344 274.585938 M 306.90625 274.53125 C 306.910156 274.519531 306.910156 274.507812 306.910156 274.496094 C 306.910156 274.507812 306.910156 274.519531 306.90625 274.53125 M 306.910156 274.480469 C 306.910156 274.464844 306.910156 274.457031 306.910156 274.441406 C 306.910156 274.457031 306.910156 274.464844 306.910156 274.480469 M 306.914062 274.425781 C 306.914062 274.417969 306.914062 274.398438 306.914062 274.390625 C 306.914062 274.402344 306.914062 274.414062 306.914062 274.425781 M 306.914062 274.375 C 306.917969 274.367188 306.917969 274.347656 306.917969 274.335938 C 306.917969 274.351562 306.917969 274.363281 306.914062 274.375 M 306.917969 274.320312 C 306.917969 274.3125 306.917969 274.292969 306.917969 274.285156 C 306.917969 274.296875 306.917969 274.308594 306.917969 274.320312 M 306.921875 274.269531 C 306.921875 274.257812 306.921875 274.242188 306.921875 274.230469 C 306.921875 274.242188 306.921875 274.257812 306.921875 274.269531 M 306.925781 274.21875 C 306.925781 274.203125 306.925781 274.191406 306.925781 274.175781 C 306.925781 274.191406 306.925781 274.203125 306.925781 274.21875 M 306.925781 274.167969 C 306.925781 274.148438 306.925781 274.136719 306.929688 274.117188 C 306.925781 274.136719 306.925781 274.148438 306.925781 274.167969 M 306.929688 274.113281 C 306.9375 273.9375 306.945312 273.757812 306.957031 273.578125 C 306.945312 273.757812 306.9375 273.9375 306.929688 274.113281 M 306.957031 273.578125 C 306.957031 273.558594 306.957031 273.542969 306.957031 273.527344 C 306.957031 273.542969 306.957031 273.558594 306.957031 273.578125 M 306.957031 273.523438 C 307.070312 271.101562 307.140625 268.621094 307.15625 266.078125 C 307.140625 268.621094 307.070312 271.101562 306.957031 273.523438 M 307.15625 266.078125 C 307.15625 266.058594 307.15625 266.042969 307.15625 266.023438 C 307.15625 266.042969 307.15625 266.0625 307.15625 266.078125 M 307.15625 266.019531 C 307.15625 266.003906 307.15625 265.988281 307.15625 265.96875 C 307.15625 265.984375 307.15625 266.003906 307.15625 266.019531 M 307.15625 265.964844 C 307.15625 265.945312 307.15625 265.929688 307.15625 265.914062 C 307.15625 265.929688 307.15625 265.949219 307.15625 265.964844 M 307.15625 265.90625 C 307.15625 265.890625 307.15625 265.875 307.160156 265.855469 C 307.15625 265.875 307.15625 265.890625 307.15625 265.90625 M 307.160156 265.851562 C 307.160156 265.832031 307.160156 265.820312 307.160156 265.800781 C 307.160156 265.816406 307.160156 265.835938 307.160156 265.851562 M 307.160156 265.796875 C 307.160156 265.664062 307.160156 265.53125 307.160156 265.402344 C 307.160156 265.53125 307.160156 265.664062 307.160156 265.796875 M 307.160156 265.398438 C 307.160156 265.378906 307.160156 265.363281 307.160156 265.34375 C 307.160156 265.363281 307.160156 265.382812 307.160156 265.398438 M 307.160156 265.335938 C 307.160156 265.316406 307.160156 265.308594 307.160156 265.289062 C 307.160156 265.304688 307.160156 265.320312 307.160156 265.335938 M 307.160156 265.277344 C 307.160156 265.265625 307.160156 265.25 307.160156 265.238281 C 307.160156 265.25 307.160156 265.265625 307.160156 265.277344 M 307.160156 265.21875 C 307.160156 265.207031 307.160156 265.195312 307.160156 265.179688 C 307.160156 265.195312 307.160156 265.207031 307.160156 265.21875 M 307.160156 265.164062 C 307.160156 265.152344 307.160156 265.136719 307.160156 265.125 C 307.160156 265.136719 307.160156 265.152344 307.160156 265.164062 M 307.160156 265.105469 C 307.160156 265.097656 307.160156 265.078125 307.160156 265.070312 C 307.160156 265.082031 307.160156 265.09375 307.160156 265.105469 M 307.160156 265.050781 C 307.160156 265.042969 307.160156 265.023438 307.160156 265.015625 C 307.160156 265.027344 307.160156 265.039062 307.160156 265.050781 M 307.160156 264.996094 C 307.164062 264.984375 307.164062 264.96875 307.164062 264.957031 C 307.164062 264.972656 307.164062 264.980469 307.160156 264.996094 M 307.164062 264.941406 C 307.164062 264.925781 307.164062 264.917969 307.164062 264.902344 C 307.164062 264.914062 307.164062 264.925781 307.164062 264.941406 M 307.164062 264.882812 C 307.164062 264.871094 307.164062 264.859375 307.164062 264.84375 C 307.164062 264.855469 307.164062 264.875 307.164062 264.882812 M 307.164062 264.828125 C 307.164062 264.816406 307.164062 264.800781 307.164062 264.789062 C 307.164062 264.800781 307.164062 264.816406 307.164062 264.828125 M 307.164062 264.773438 C 307.164062 264.757812 307.164062 264.746094 307.164062 264.730469 C 307.164062 264.746094 307.164062 264.761719 307.164062 264.773438 M 307.164062 264.714844 C 307.164062 264.699219 307.164062 264.679688 307.164062 264.660156 C 307.164062 264.679688 307.164062 264.699219 307.164062 264.714844 " fill-opacity="1" fill-rule="nonzero"/><path fill="#ded9f0" d="M 286.335938 340.808594 C 286.363281 340.761719 286.394531 340.714844 286.421875 340.667969 C 297.113281 325.238281 307.160156 301.070312 307.160156 264.660156 C 307.164062 264.660156 307.164062 264.660156 307.164062 264.660156 C 307.164062 264.679688 307.164062 264.699219 307.164062 264.714844 C 307.164062 264.722656 307.164062 264.726562 307.164062 264.730469 C 307.164062 264.746094 307.164062 264.757812 307.164062 264.773438 C 307.164062 264.777344 307.164062 264.785156 307.164062 264.789062 C 307.164062 264.800781 307.164062 264.816406 307.164062 264.828125 C 307.164062 264.835938 307.164062 264.839844 307.164062 264.84375 C 307.164062 264.859375 307.164062 264.871094 307.164062 264.882812 C 307.164062 264.890625 307.164062 264.894531 307.164062 264.902344 C 307.164062 264.917969 307.164062 264.925781 307.164062 264.941406 C 307.164062 264.945312 307.164062 264.953125 307.164062 264.957031 C 307.164062 264.96875 307.164062 264.984375 307.160156 264.996094 C 307.160156 265 307.160156 265.007812 307.160156 265.015625 C 307.160156 265.023438 307.160156 265.042969 307.160156 265.050781 C 307.160156 265.058594 307.160156 265.0625 307.160156 265.070312 C 307.160156 265.078125 307.160156 265.097656 307.160156 265.105469 C 307.160156 265.113281 307.160156 265.117188 307.160156 265.125 C 307.160156 265.136719 307.160156 265.152344 307.160156 265.164062 C 307.160156 265.171875 307.160156 265.175781 307.160156 265.179688 C 307.160156 265.195312 307.160156 265.207031 307.160156 265.21875 C 307.160156 265.222656 307.160156 265.230469 307.160156 265.238281 C 307.160156 265.25 307.160156 265.265625 307.160156 265.277344 C 307.160156 265.285156 307.160156 265.285156 307.160156 265.289062 C 307.160156 265.308594 307.160156 265.316406 307.160156 265.335938 C 307.160156 265.339844 307.160156 265.339844 307.160156 265.34375 C 307.160156 265.363281 307.160156 265.378906 307.160156 265.398438 L 307.160156 265.402344 C 307.160156 265.53125 307.160156 265.664062 307.160156 265.796875 C 307.160156 265.796875 307.160156 265.796875 307.160156 265.800781 C 307.160156 265.820312 307.160156 265.832031 307.160156 265.851562 L 307.160156 265.855469 C 307.15625 265.875 307.15625 265.890625 307.15625 265.90625 C 307.15625 265.910156 307.15625 265.910156 307.15625 265.914062 C 307.15625 265.929688 307.15625 265.945312 307.15625 265.964844 L 307.15625 265.96875 C 307.15625 265.988281 307.15625 266.003906 307.15625 266.019531 C 307.15625 266.023438 307.15625 266.023438 307.15625 266.023438 C 307.15625 266.042969 307.15625 266.058594 307.15625 266.078125 C 307.140625 268.621094 307.070312 271.101562 306.957031 273.523438 L 306.957031 273.527344 C 306.957031 273.542969 306.957031 273.558594 306.957031 273.578125 C 306.945312 273.757812 306.9375 273.9375 306.929688 274.113281 C 306.929688 274.117188 306.929688 274.117188 306.929688 274.117188 C 306.925781 274.136719 306.925781 274.148438 306.925781 274.167969 C 306.925781 274.167969 306.925781 274.175781 306.925781 274.175781 C 306.925781 274.191406 306.925781 274.203125 306.925781 274.21875 C 306.921875 274.222656 306.921875 274.226562 306.921875 274.230469 C 306.921875 274.242188 306.921875 274.257812 306.921875 274.269531 C 306.921875 274.277344 306.921875 274.277344 306.917969 274.285156 C 306.917969 274.292969 306.917969 274.3125 306.917969 274.320312 C 306.917969 274.328125 306.917969 274.335938 306.917969 274.335938 C 306.917969 274.347656 306.917969 274.367188 306.914062 274.375 C 306.914062 274.378906 306.914062 274.386719 306.914062 274.390625 C 306.914062 274.398438 306.914062 274.417969 306.914062 274.425781 C 306.914062 274.433594 306.914062 274.4375 306.910156 274.441406 C 306.910156 274.457031 306.910156 274.464844 306.910156 274.480469 C 306.910156 274.484375 306.910156 274.492188 306.910156 274.496094 C 306.910156 274.507812 306.910156 274.519531 306.90625 274.53125 C 306.90625 274.535156 306.90625 274.542969 306.90625 274.546875 C 306.90625 274.5625 306.90625 274.574219 306.902344 274.585938 C 306.902344 274.589844 306.902344 274.597656 306.902344 274.601562 C 306.902344 274.613281 306.902344 274.628906 306.902344 274.640625 C 306.902344 274.648438 306.902344 274.648438 306.902344 274.652344 C 306.902344 274.664062 306.898438 274.683594 306.898438 274.695312 C 306.898438 274.699219 306.898438 274.703125 306.898438 274.703125 C 306.898438 274.71875 306.898438 274.734375 306.894531 274.75 C 306.894531 274.753906 306.894531 274.753906 306.894531 274.757812 C 306.894531 274.773438 306.894531 274.792969 306.894531 274.808594 C 306.890625 274.816406 306.890625 274.824219 306.890625 274.832031 C 306.890625 274.839844 306.890625 274.851562 306.890625 274.859375 C 306.890625 274.867188 306.890625 274.875 306.886719 274.882812 C 306.886719 274.894531 306.886719 274.902344 306.886719 274.914062 C 306.886719 274.921875 306.886719 274.929688 306.886719 274.9375 C 306.886719 274.941406 306.882812 274.960938 306.882812 274.964844 C 306.882812 274.972656 306.882812 274.980469 306.882812 274.992188 C 306.882812 274.996094 306.882812 275.011719 306.882812 275.015625 C 306.878906 275.023438 306.878906 275.035156 306.878906 275.046875 C 306.878906 275.050781 306.878906 275.058594 306.878906 275.066406 C 306.878906 275.074219 306.878906 275.085938 306.878906 275.097656 C 306.875 275.105469 306.875 275.105469 306.875 275.117188 C 306.875 275.125 306.875 275.140625 306.875 275.148438 C 306.875 275.15625 306.875 275.15625 306.871094 275.167969 C 306.871094 275.179688 306.871094 275.1875 306.871094 275.199219 C 306.871094 275.210938 306.871094 275.207031 306.871094 275.21875 C 306.871094 275.230469 306.867188 275.242188 306.867188 275.253906 C 306.867188 275.257812 306.867188 275.265625 306.867188 275.265625 C 306.867188 275.28125 306.867188 275.289062 306.863281 275.304688 C 306.863281 275.308594 306.863281 275.316406 306.863281 275.320312 C 306.863281 275.328125 306.863281 275.34375 306.863281 275.355469 C 306.863281 275.359375 306.863281 275.363281 306.863281 275.367188 C 306.859375 275.378906 306.859375 275.394531 306.859375 275.40625 C 306.859375 275.410156 306.859375 275.410156 306.859375 275.417969 C 306.847656 275.578125 306.839844 275.742188 306.832031 275.90625 C 305.003906 306.222656 295.917969 327.027344 286.335938 340.808594 " fill-opacity="1" fill-rule="nonzero"/><path fill="#beb9e3" d="M 219.613281 264.84375 C 216.828125 264.84375 215.441406 264.664062 215.414062 264.660156 C 215.414062 264.660156 216.800781 264.84375 219.609375 264.84375 C 222.964844 264.84375 228.347656 264.585938 235.820312 263.449219 C 251.328125 261.09375 261.289062 256.851562 261.289062 256.851562 C 261.289062 256.851562 251.328125 261.09375 235.820312 263.449219 C 235.789062 263.453125 235.753906 263.460938 235.71875 263.464844 C 235.703125 263.464844 235.6875 263.46875 235.675781 263.472656 C 228.277344 264.585938 222.945312 264.84375 219.613281 264.84375 " fill-opacity="1" fill-rule="nonzero"/><path fill="#f2f0f9" d="M 261.289062 299.71875 C 252.117188 289.507812 240.566406 280.109375 226.03125 272.265625 C 225.863281 271.246094 225.699219 270.210938 225.546875 269.160156 C 227.671875 268.953125 230.058594 268.660156 232.707031 268.253906 C 248.214844 265.898438 258.175781 261.65625 258.175781 261.65625 C 258.175781 261.65625 259.265625 262.121094 261.289062 262.828125 L 261.289062 299.71875 M 219.609375 264.84375 C 216.828125 264.84375 215.441406 264.664062 215.414062 264.660156 C 215.441406 264.664062 216.828125 264.84375 219.613281 264.84375 C 222.945312 264.84375 228.277344 264.585938 235.675781 263.472656 C 228.277344 264.589844 222.941406 264.84375 219.609375 264.84375 M 235.71875 263.464844 C 235.753906 263.460938 235.789062 263.453125 235.820312 263.449219 C 251.328125 261.09375 261.289062 256.851562 261.289062 256.851562 C 261.289062 256.851562 251.328125 261.09375 235.820312 263.449219 C 235.789062 263.453125 235.753906 263.460938 235.71875 263.464844 " fill-opacity="1" fill-rule="nonzero"/><path fill="#f4f3fa" d="M 226.03125 272.265625 C 224.300781 271.332031 222.527344 270.417969 220.714844 269.53125 C 222.140625 269.457031 223.75 269.335938 225.546875 269.160156 C 225.699219 270.210938 225.863281 271.246094 226.03125 272.265625 " fill-opacity="1" fill-rule="nonzero"/><path fill="#e1ddf2" d="M 225.546875 269.160156 C 225.464844 268.59375 225.386719 268.015625 225.308594 267.4375 C 223.949219 267.503906 222.777344 267.527344 221.789062 267.527344 C 219.128906 267.527344 217.816406 267.355469 217.816406 267.355469 C 217.816406 267.621094 217.820312 267.886719 217.820312 268.152344 C 217.042969 267.789062 216.253906 267.433594 215.457031 267.078125 C 215.449219 266.265625 215.414062 265.484375 215.414062 264.660156 C 215.441406 264.664062 216.828125 264.84375 219.609375 264.84375 C 222.941406 264.84375 228.277344 264.589844 235.675781 263.472656 C 235.6875 263.46875 235.703125 263.464844 235.71875 263.464844 C 235.753906 263.460938 235.789062 263.453125 235.820312 263.449219 C 251.328125 261.09375 261.289062 256.851562 261.289062 256.851562 L 261.289062 262.828125 C 259.265625 262.121094 258.175781 261.65625 258.175781 261.65625 C 258.175781 261.65625 248.214844 265.898438 232.707031 268.253906 C 230.058594 268.660156 227.671875 268.953125 225.546875 269.160156 " fill-opacity="1" fill-rule="nonzero"/><path fill="#e4e1f3" d="M 220.714844 269.53125 C 219.761719 269.066406 218.796875 268.605469 217.820312 268.152344 C 217.820312 267.886719 217.816406 267.621094 217.816406 267.355469 C 217.816406 267.355469 219.128906 267.527344 221.789062 267.527344 C 222.777344 267.527344 223.949219 267.503906 225.308594 267.4375 C 225.386719 268.015625 225.464844 268.59375 225.546875 269.160156 C 223.75 269.335938 222.140625 269.457031 220.714844 269.53125 " fill-opacity="1" fill-rule="nonzero"/><path fill="#d0cbea" d="M 302.964844 264.84375 C 299.65625 264.84375 294.378906 264.59375 287.066406 263.496094 C 287.0625 263.496094 287.058594 263.496094 287.058594 263.496094 C 287.039062 263.492188 287.023438 263.488281 287.007812 263.488281 C 287 263.488281 286.996094 263.484375 286.992188 263.484375 C 286.964844 263.480469 286.941406 263.476562 286.914062 263.472656 C 286.894531 263.46875 286.871094 263.464844 286.851562 263.464844 C 286.820312 263.457031 286.789062 263.453125 286.753906 263.449219 C 271.246094 261.09375 261.289062 256.851562 261.289062 256.851562 C 261.289062 256.851562 271.246094 261.09375 286.753906 263.449219 C 294.230469 264.585938 299.609375 264.84375 302.964844 264.84375 C 305.773438 264.84375 307.160156 264.660156 307.160156 264.660156 C 307.140625 264.664062 305.75 264.84375 302.964844 264.84375 " fill-opacity="1" fill-rule="nonzero"/><path fill="#f4f2fa" d="M 285.984375 341.296875 C 285.707031 340.542969 285.425781 339.785156 285.136719 339.027344 C 291.839844 329.285156 298.253906 315.886719 301.785156 297.882812 C 298.710938 316.117188 292.863281 330.105469 286.421875 340.667969 C 286.277344 340.878906 286.128906 341.089844 285.984375 341.296875 M 281.039062 329.46875 C 276.179688 319.25 269.75 309.140625 261.289062 299.71875 L 261.289062 262.828125 C 265.375 264.257812 273.265625 266.679688 283.640625 268.253906 C 291.113281 269.390625 296.496094 269.652344 299.851562 269.652344 C 302.664062 269.652344 304.050781 269.46875 304.050781 269.46875 C 304.050781 279.4375 303.296875 288.484375 301.980469 296.6875 C 295.988281 312.15625 287.898438 322.675781 281.039062 329.46875 M 302.964844 264.84375 C 299.65625 264.84375 294.378906 264.59375 287.066406 263.496094 C 294.378906 264.59375 299.65625 264.84375 302.964844 264.84375 C 305.75 264.84375 307.140625 264.664062 307.160156 264.660156 C 307.140625 264.664062 305.75 264.84375 302.964844 264.84375 M 287.058594 263.496094 C 287.039062 263.492188 287.023438 263.488281 287.007812 263.488281 C 287.023438 263.488281 287.039062 263.492188 287.058594 263.496094 M 286.992188 263.484375 C 286.964844 263.480469 286.941406 263.476562 286.914062 263.472656 C 286.941406 263.476562 286.964844 263.480469 286.992188 263.484375 M 286.851562 263.464844 C 286.820312 263.457031 286.789062 263.453125 286.753906 263.449219 C 271.246094 261.09375 261.289062 256.851562 261.289062 256.851562 C 261.289062 256.851562 271.246094 261.09375 286.753906 263.449219 C 286.789062 263.453125 286.820312 263.457031 286.851562 263.464844 " fill-opacity="1" fill-rule="nonzero"/><path fill="#f5f4fb" d="M 285.136719 339.027344 C 283.914062 335.84375 282.550781 332.648438 281.039062 329.46875 C 287.898438 322.675781 295.988281 312.15625 301.980469 296.6875 C 301.917969 297.085938 301.851562 297.488281 301.785156 297.882812 C 298.253906 315.886719 291.839844 329.285156 285.136719 339.027344 " fill-opacity="1" fill-rule="nonzero"/><path fill="#e8e5f5" d="M 286.421875 340.667969 C 292.863281 330.105469 298.710938 316.117188 301.785156 297.882812 C 301.871094 297.433594 301.960938 296.980469 302.042969 296.523438 C 302.023438 296.578125 302 296.632812 301.980469 296.6875 C 303.296875 288.484375 304.050781 279.4375 304.050781 269.46875 C 304.050781 269.46875 302.664062 269.652344 299.851562 269.652344 C 296.496094 269.652344 291.113281 269.390625 283.640625 268.253906 C 273.265625 266.679688 265.375 264.257812 261.289062 262.828125 L 261.289062 256.851562 C 261.289062 256.851562 271.246094 261.09375 286.753906 263.449219 C 286.789062 263.453125 286.820312 263.457031 286.851562 263.464844 C 286.871094 263.464844 286.894531 263.46875 286.914062 263.472656 C 286.941406 263.476562 286.964844 263.480469 286.992188 263.484375 C 286.996094 263.484375 287 263.488281 287.007812 263.488281 C 287.023438 263.488281 287.039062 263.492188 287.058594 263.496094 C 287.058594 263.496094 287.0625 263.496094 287.066406 263.496094 C 294.378906 264.59375 299.65625 264.84375 302.964844 264.84375 C 305.75 264.84375 307.140625 264.664062 307.160156 264.660156 C 307.160156 301.070312 297.113281 325.238281 286.421875 340.667969 " fill-opacity="1" fill-rule="nonzero"/><path fill="#ebe8f6" d="M 301.785156 297.882812 C 301.851562 297.488281 301.917969 297.085938 301.980469 296.6875 C 302 296.632812 302.023438 296.578125 302.042969 296.523438 C 301.960938 296.980469 301.871094 297.433594 301.785156 297.882812 " fill-opacity="1" fill-rule="nonzero"/></svg>